<svg xmlns="http://www.w3.org/2000/svg" xmlns:xlink="http://www.w3.org/1999/xlink" width="500" zoomAndPan="magnify" viewBox="0 0 375 374.999991" height="500" preserveAspectRatio="xMidYMid meet" version="1.0"><defs><g/></defs><g fill="#000000" fill-opacity="1"><g transform="translate(112.315683, 195.854013)"><g><path d="M 83.453125 -55.90625 L 99.359375 -55.90625 L 99.359375 -2.78125 C 98.046875 -2.34375 96.160156 -1.847656 93.703125 -1.296875 C 91.242188 -0.753906 88.398438 -0.210938 85.171875 0.328125 C 81.953125 0.867188 78.425781 1.332031 74.59375 1.71875 C 70.769531 2.101562 66.890625 2.296875 62.953125 2.296875 C 54.972656 2.296875 47.703125 0.984375 41.140625 -1.640625 C 34.585938 -4.265625 28.960938 -8.085938 24.265625 -13.109375 C 19.566406 -18.140625 15.929688 -24.316406 13.359375 -31.640625 C 10.796875 -38.960938 9.515625 -47.378906 9.515625 -56.890625 C 9.515625 -66.398438 10.960938 -74.84375 13.859375 -82.21875 C 16.753906 -89.601562 20.660156 -95.804688 25.578125 -100.828125 C 30.492188 -105.859375 36.257812 -109.6875 42.875 -112.3125 C 49.488281 -114.9375 56.566406 -116.25 64.109375 -116.25 C 69.242188 -116.25 73.804688 -115.921875 77.796875 -115.265625 C 81.785156 -114.609375 85.203125 -113.84375 88.046875 -112.96875 C 90.890625 -112.09375 93.210938 -111.21875 95.015625 -110.34375 C 96.816406 -109.46875 98.046875 -108.8125 98.703125 -108.375 L 93.625 -95.09375 C 90.445312 -97.164062 86.234375 -98.882812 80.984375 -100.25 C 75.742188 -101.625 70.390625 -102.3125 64.921875 -102.3125 C 59.128906 -102.3125 53.851562 -101.269531 49.09375 -99.1875 C 44.34375 -97.113281 40.300781 -94.109375 36.96875 -90.171875 C 33.632812 -86.234375 31.035156 -81.453125 29.171875 -75.828125 C 27.316406 -70.203125 26.390625 -63.890625 26.390625 -56.890625 C 26.390625 -50.117188 27.179688 -43.941406 28.765625 -38.359375 C 30.359375 -32.785156 32.765625 -28.003906 35.984375 -24.015625 C 39.210938 -20.023438 43.203125 -16.9375 47.953125 -14.75 C 52.710938 -12.570312 58.316406 -11.484375 64.765625 -11.484375 C 69.347656 -11.484375 73.253906 -11.726562 76.484375 -12.21875 C 79.710938 -12.707031 82.035156 -13.171875 83.453125 -13.609375 Z M 83.453125 -55.90625 "/></g></g></g><g fill="#000000" fill-opacity="1"><g transform="translate(262.673629, 116.978284)"><g><path d="M -83.453125 55.90625 L -99.359375 55.90625 L -99.359375 2.78125 C -98.046875 2.34375 -96.160156 1.847656 -93.703125 1.296875 C -91.242188 0.753906 -88.398438 0.210938 -85.171875 -0.328125 C -81.953125 -0.867188 -78.425781 -1.332031 -74.59375 -1.71875 C -70.769531 -2.101562 -66.890625 -2.296875 -62.953125 -2.296875 C -54.972656 -2.296875 -47.703125 -0.984375 -41.140625 1.640625 C -34.585938 4.265625 -28.960938 8.085938 -24.265625 13.109375 C -19.566406 18.140625 -15.929688 24.316406 -13.359375 31.640625 C -10.796875 38.960938 -9.515625 47.378906 -9.515625 56.890625 C -9.515625 66.398438 -10.960938 74.84375 -13.859375 82.21875 C -16.753906 89.601562 -20.660156 95.804688 -25.578125 100.828125 C -30.492188 105.859375 -36.257812 109.6875 -42.875 112.3125 C -49.488281 114.9375 -56.566406 116.25 -64.109375 116.25 C -69.242188 116.25 -73.804688 115.921875 -77.796875 115.265625 C -81.785156 114.609375 -85.203125 113.84375 -88.046875 112.96875 C -90.890625 112.09375 -93.210938 111.21875 -95.015625 110.34375 C -96.816406 109.46875 -98.046875 108.8125 -98.703125 108.375 L -93.625 95.09375 C -90.445312 97.164062 -86.234375 98.882812 -80.984375 100.25 C -75.742188 101.625 -70.390625 102.3125 -64.921875 102.3125 C -59.128906 102.3125 -53.851562 101.269531 -49.09375 99.1875 C -44.34375 97.113281 -40.300781 94.109375 -36.96875 90.171875 C -33.632812 86.234375 -31.035156 81.453125 -29.171875 75.828125 C -27.316406 70.203125 -26.390625 63.890625 -26.390625 56.890625 C -26.390625 50.117188 -27.179688 43.941406 -28.765625 38.359375 C -30.359375 32.785156 -32.765625 28.003906 -35.984375 24.015625 C -39.210938 20.023438 -43.203125 16.9375 -47.953125 14.75 C -52.710938 12.570312 -58.316406 11.484375 -64.765625 11.484375 C -69.347656 11.484375 -73.253906 11.726562 -76.484375 12.21875 C -79.710938 12.707031 -82.035156 13.171875 -83.453125 13.609375 Z M -83.453125 55.90625 "/></g></g></g></svg>