<svg xmlns="http://www.w3.org/2000/svg" xmlns:xlink="http://www.w3.org/1999/xlink" width="500" zoomAndPan="magnify" viewBox="0 0 375 374.999991" height="500" preserveAspectRatio="xMidYMid meet" version="1.0"><defs><g/><clipPath id="f134f391fd"><path d="M 125.488281 93.261719 L 182.398438 93.261719 L 182.398438 231.96875 L 125.488281 231.96875 Z M 125.488281 93.261719 " clip-rule="nonzero"/></clipPath><clipPath id="fd76976bb7"><path d="M 77.457031 114.578125 L 173.523438 114.578125 L 173.523438 210.648438 L 77.457031 210.648438 Z M 77.457031 114.578125 " clip-rule="nonzero"/></clipPath><clipPath id="1a6c4dd3b6"><path d="M 125.488281 114.578125 C 98.960938 114.578125 77.457031 136.085938 77.457031 162.613281 C 77.457031 189.140625 98.960938 210.648438 125.488281 210.648438 C 152.015625 210.648438 173.523438 189.140625 173.523438 162.613281 C 173.523438 136.085938 152.015625 114.578125 125.488281 114.578125 Z M 125.488281 114.578125 " clip-rule="nonzero"/></clipPath></defs><g clip-path="url(#f134f391fd)"><path fill="#ffffff" d="M 125.488281 93.261719 L 182.398438 93.261719 L 182.398438 231.976562 L 125.488281 231.976562 Z M 125.488281 93.261719 " fill-opacity="1" fill-rule="nonzero"/></g><g clip-path="url(#fd76976bb7)"><g clip-path="url(#1a6c4dd3b6)"><path fill="#ffffff" d="M 77.457031 114.578125 L 173.523438 114.578125 L 173.523438 210.648438 L 77.457031 210.648438 Z M 77.457031 114.578125 " fill-opacity="1" fill-rule="nonzero"/></g></g><g fill="#ffffff" fill-opacity="1"><g transform="translate(156.322758, 232.60533)"><g><path d="M 13.234375 -138.890625 L 69.53125 -138.890625 C 79.601562 -138.890625 89.019531 -137.144531 97.78125 -133.65625 C 106.539062 -130.175781 114.242188 -125.296875 120.890625 -119.015625 C 127.546875 -112.742188 132.765625 -105.414062 136.546875 -97.03125 C 140.335938 -88.644531 142.234375 -79.476562 142.234375 -69.53125 C 142.234375 -59.59375 140.335938 -50.394531 136.546875 -41.9375 C 132.765625 -33.488281 127.546875 -26.125 120.890625 -19.84375 C 114.242188 -13.570312 106.539062 -8.695312 97.78125 -5.21875 C 89.019531 -1.738281 79.664062 0 69.71875 0 L 13.234375 0 Z M 42.125 -26.09375 L 69.71875 -26.09375 C 77.800781 -26.09375 85.070312 -27.988281 91.53125 -31.78125 C 98 -35.570312 103.125 -40.726562 106.90625 -47.25 C 110.695312 -53.78125 112.59375 -61.207031 112.59375 -69.53125 C 112.59375 -77.988281 110.695312 -85.445312 106.90625 -91.90625 C 103.125 -98.363281 97.96875 -103.457031 91.4375 -107.1875 C 84.914062 -110.914062 77.613281 -112.78125 69.53125 -112.78125 L 42.125 -112.78125 Z M 42.125 -26.09375 "/></g></g></g><g fill="#ffffff" fill-opacity="1"><g transform="translate(115.66444, 272.414982)"><g><path d="M 11.578125 4.296875 C 13.515625 4.296875 15.363281 3.867188 17.125 3.015625 C 18.882812 2.160156 20.5 1.078125 21.96875 -0.234375 C 23.445312 -1.546875 24.691406 -2.898438 25.703125 -4.296875 C 26.890625 -5.828125 27.929688 -7.519531 28.828125 -9.375 C 29.722656 -11.238281 30.421875 -13.175781 30.921875 -15.1875 C 31.429688 -17.195312 31.6875 -19.15625 31.6875 -21.0625 C 31.6875 -22.65625 31.460938 -24.125 31.015625 -25.46875 C 30.566406 -26.8125 29.914062 -27.882812 29.0625 -28.6875 C 28.207031 -29.5 27.175781 -29.90625 25.96875 -29.90625 C 24.632812 -29.90625 23.390625 -29.503906 22.234375 -28.703125 C 21.078125 -27.910156 20.015625 -26.894531 19.046875 -25.65625 C 18.078125 -24.414062 17.238281 -23.128906 16.53125 -21.796875 C 15.820312 -20.472656 15.265625 -19.289062 14.859375 -18.25 L 13.171875 -13.734375 C 12.648438 -12.179688 12.144531 -10.554688 11.65625 -8.859375 C 11.164062 -7.171875 10.765625 -5.546875 10.453125 -3.984375 C 10.390625 -3.609375 10.285156 -3.050781 10.140625 -2.3125 C 9.992188 -1.582031 9.84375 -0.804688 9.6875 0.015625 C 9.53125 0.835938 9.398438 1.601562 9.296875 2.3125 C 9.191406 3.019531 9.140625 3.535156 9.140625 3.859375 C 9.378906 3.972656 9.75 4.070312 10.25 4.15625 C 10.757812 4.25 11.203125 4.296875 11.578125 4.296875 Z M 9.140625 -4.765625 C 9.140625 -4.796875 9.144531 -4.8125 9.15625 -4.8125 C 9.175781 -4.8125 9.1875 -4.828125 9.1875 -4.859375 L 9.703125 -6.9375 C 10.078125 -8.5 10.5625 -10.242188 11.15625 -12.171875 C 11.75 -14.109375 12.4375 -16.050781 13.21875 -18 C 14 -19.957031 14.875 -21.785156 15.84375 -23.484375 C 16.8125 -25.191406 17.84375 -26.597656 18.9375 -27.703125 C 19.976562 -28.734375 21.039062 -29.609375 22.125 -30.328125 C 23.207031 -31.054688 24.515625 -31.421875 26.046875 -31.421875 C 27.234375 -31.421875 28.300781 -31.125 29.25 -30.53125 C 30.207031 -29.9375 31.019531 -29.125 31.6875 -28.09375 C 32.46875 -26.84375 32.988281 -25.472656 33.25 -23.984375 C 33.507812 -22.503906 33.566406 -20.972656 33.421875 -19.390625 C 33.273438 -17.816406 33.015625 -16.28125 32.640625 -14.78125 C 32.265625 -13.28125 31.84375 -11.921875 31.375 -10.703125 C 30.6875 -8.796875 29.675781 -6.867188 28.34375 -4.921875 C 27.019531 -2.972656 25.484375 -1.175781 23.734375 0.46875 C 21.984375 2.125 20.082031 3.445312 18.03125 4.4375 C 15.976562 5.4375 13.867188 5.9375 11.703125 5.9375 C 11.003906 5.9375 10.445312 5.867188 10.03125 5.734375 C 9.613281 5.609375 9.203125 5.53125 8.796875 5.5 L 8.1875 12.5625 C 8.132812 12.914062 8.09375 13.488281 8.0625 14.28125 C 8.03125 15.070312 8 15.863281 7.96875 16.65625 C 7.945312 17.457031 7.90625 18.070312 7.84375 18.5 C 7.789062 19.195312 7.75 19.863281 7.71875 20.5 C 7.6875 21.132812 7.617188 21.65625 7.515625 22.0625 C 7.421875 22.46875 7.1875 22.671875 6.8125 22.671875 C 6.570312 22.671875 6.335938 22.613281 6.109375 22.5 C 5.992188 22.0625 5.925781 21.316406 5.90625 20.265625 C 5.894531 19.210938 5.90625 18.0625 5.9375 16.8125 C 5.96875 15.570312 6.003906 14.398438 6.046875 13.296875 C 6.085938 12.203125 6.109375 11.382812 6.109375 10.84375 C 6.109375 10.195312 6.128906 9.628906 6.171875 9.140625 C 6.210938 8.648438 6.234375 8.128906 6.234375 7.578125 C 6.234375 6.921875 6.25 6.375 6.28125 5.9375 C 6.3125 5.5 6.328125 4.992188 6.328125 4.421875 C 6.179688 4.273438 6.015625 4.144531 5.828125 4.03125 C 5.640625 3.914062 5.457031 3.800781 5.28125 3.6875 C 4.757812 3.3125 4.515625 2.9375 4.546875 2.5625 C 4.578125 2.1875 4.753906 2 5.078125 2 C 5.273438 2 5.445312 2.054688 5.59375 2.171875 C 5.789062 2.285156 5.945312 2.382812 6.0625 2.46875 C 6.175781 2.550781 6.265625 2.59375 6.328125 2.59375 C 6.441406 2.59375 6.488281 2.429688 6.46875 2.109375 C 6.457031 1.796875 6.46875 1.238281 6.5 0.4375 C 6.5 0.0625 6.519531 -0.195312 6.5625 -0.34375 C 6.601562 -0.488281 6.625 -0.734375 6.625 -1.078125 C 6.65625 -1.367188 6.660156 -1.664062 6.640625 -1.96875 C 6.628906 -2.269531 6.640625 -2.566406 6.671875 -2.859375 C 6.703125 -3.179688 6.734375 -3.441406 6.765625 -3.640625 C 6.796875 -3.835938 6.8125 -4.125 6.8125 -4.5 C 6.8125 -5.394531 6.835938 -6.453125 6.890625 -7.671875 C 6.953125 -8.890625 7.015625 -10.101562 7.078125 -11.3125 C 7.148438 -12.53125 7.1875 -13.597656 7.1875 -14.515625 C 7.1875 -15.097656 7.207031 -15.875 7.25 -16.84375 C 7.300781 -17.8125 7.328125 -18.835938 7.328125 -19.921875 C 7.328125 -21.003906 7.296875 -22.015625 7.234375 -22.953125 C 7.179688 -23.890625 7.039062 -24.585938 6.8125 -25.046875 C 6.488281 -24.847656 6.179688 -24.492188 5.890625 -23.984375 C 5.609375 -23.484375 5.34375 -22.941406 5.09375 -22.359375 C 4.84375 -21.785156 4.632812 -21.28125 4.46875 -20.84375 C 4.207031 -20.125 3.972656 -19.265625 3.765625 -18.265625 C 3.566406 -17.273438 3.394531 -16.398438 3.25 -15.640625 C 3.132812 -14.660156 3.097656 -13.65625 3.140625 -12.625 C 3.179688 -11.601562 3.273438 -10.660156 3.421875 -9.796875 C 3.628906 -8.816406 3.847656 -8.128906 4.078125 -7.734375 C 4.304688 -7.347656 4.519531 -7.097656 4.71875 -6.984375 C 4.925781 -6.867188 5.054688 -6.722656 5.109375 -6.546875 C 5.253906 -6.335938 5.269531 -6.144531 5.15625 -5.96875 C 5.039062 -5.800781 4.867188 -5.71875 4.640625 -5.71875 C 4.378906 -5.71875 4.066406 -5.863281 3.703125 -6.15625 C 3.347656 -6.445312 3.007812 -6.953125 2.6875 -7.671875 C 2.363281 -8.535156 2.160156 -9.289062 2.078125 -9.9375 C 1.992188 -10.59375 1.894531 -11.367188 1.78125 -12.265625 C 1.75 -12.554688 1.753906 -12.796875 1.796875 -12.984375 C 1.835938 -13.171875 1.859375 -13.453125 1.859375 -13.828125 C 1.859375 -15.410156 2.023438 -16.953125 2.359375 -18.453125 C 2.691406 -19.960938 3.132812 -21.410156 3.6875 -22.796875 C 3.851562 -23.203125 4.085938 -23.722656 4.390625 -24.359375 C 4.703125 -24.992188 5.066406 -25.5625 5.484375 -26.0625 C 5.898438 -26.570312 6.34375 -26.828125 6.8125 -26.828125 C 7.414062 -26.828125 7.890625 -26.566406 8.234375 -26.046875 C 8.578125 -25.523438 8.828125 -24.867188 8.984375 -24.078125 C 9.148438 -23.285156 9.253906 -22.445312 9.296875 -21.5625 C 9.335938 -20.675781 9.359375 -19.875 9.359375 -19.15625 C 9.359375 -16.675781 9.320312 -14.234375 9.25 -11.828125 C 9.175781 -9.429688 9.140625 -7.078125 9.140625 -4.765625 Z M 9.140625 -4.765625 "/></g></g></g><g fill="#ffffff" fill-opacity="1"><g transform="translate(149.249768, 272.414982)"><g><path d="M -0.265625 -3.59375 L 0 -8.5 C 0.03125 -8.8125 0.0546875 -9.191406 0.078125 -9.640625 C 0.109375 -10.085938 0.140625 -10.472656 0.171875 -10.796875 C 0.234375 -12.234375 0.414062 -13.660156 0.71875 -15.078125 C 1.019531 -16.492188 1.34375 -17.894531 1.6875 -19.28125 C 1.894531 -19.863281 2.054688 -20.25 2.171875 -20.4375 C 2.285156 -20.625 2.441406 -20.71875 2.640625 -20.71875 C 2.734375 -20.71875 2.835938 -20.707031 2.953125 -20.6875 C 3.066406 -20.675781 3.195312 -20.65625 3.34375 -20.625 C 3.476562 -19.96875 3.445312 -19.179688 3.25 -18.265625 C 3.050781 -17.359375 2.894531 -16.53125 2.78125 -15.78125 C 2.457031 -13.78125 2.191406 -11.582031 1.984375 -9.1875 C 1.785156 -6.789062 1.6875 -4.507812 1.6875 -2.34375 L 1.828125 2.515625 L 2.171875 1.6875 C 2.578125 0.53125 2.914062 -0.441406 3.1875 -1.234375 C 3.457031 -2.023438 3.773438 -2.8125 4.140625 -3.59375 C 4.503906 -4.375 4.988281 -5.328125 5.59375 -6.453125 C 5.90625 -7.035156 6.210938 -7.523438 6.515625 -7.921875 C 6.828125 -8.328125 7.300781 -8.53125 7.9375 -8.53125 C 8.25 -8.53125 8.46875 -8.300781 8.59375 -7.84375 C 8.726562 -7.382812 8.8125 -6.878906 8.84375 -6.328125 C 8.875 -5.773438 8.890625 -5.367188 8.890625 -5.109375 C 8.890625 -4.304688 8.910156 -3.617188 8.953125 -3.046875 C 8.992188 -2.484375 9.160156 -1.929688 9.453125 -1.390625 C 10.117188 -1.535156 10.679688 -1.960938 11.140625 -2.671875 C 11.597656 -3.378906 12.015625 -3.988281 12.390625 -4.5 C 12.597656 -4.820312 12.785156 -5.140625 12.953125 -5.453125 C 13.128906 -5.773438 13.304688 -6.109375 13.484375 -6.453125 C 13.742188 -6.921875 13.953125 -7.238281 14.109375 -7.40625 C 14.265625 -7.582031 14.429688 -7.671875 14.609375 -7.671875 C 14.691406 -7.671875 14.847656 -7.640625 15.078125 -7.578125 C 15.222656 -7.066406 15.191406 -6.648438 14.984375 -6.328125 C 14.785156 -6.003906 14.570312 -5.628906 14.34375 -5.203125 C 14.144531 -4.828125 13.867188 -4.34375 13.515625 -3.75 C 13.171875 -3.15625 12.78125 -2.578125 12.34375 -2.015625 C 11.914062 -1.453125 11.457031 -0.972656 10.96875 -0.578125 C 10.476562 -0.191406 9.972656 0 9.453125 0 C 8.492188 0 7.867188 -0.851562 7.578125 -2.5625 C 7.492188 -3.050781 7.4375 -3.707031 7.40625 -4.53125 C 7.382812 -5.351562 7.375 -6.066406 7.375 -6.671875 C 7.164062 -6.523438 6.914062 -6.191406 6.625 -5.671875 C 6.34375 -5.148438 6.054688 -4.566406 5.765625 -3.921875 C 5.472656 -3.273438 5.203125 -2.644531 4.953125 -2.03125 C 4.710938 -1.425781 4.519531 -0.96875 4.375 -0.65625 C 4.03125 0.238281 3.75 1.132812 3.53125 2.03125 C 3.3125 2.925781 3.070312 3.78125 2.8125 4.59375 C 2.664062 5.050781 2.5 5.34375 2.3125 5.46875 C 2.125 5.601562 1.832031 5.671875 1.4375 5.671875 C 1.113281 5.671875 0.847656 5.394531 0.640625 4.84375 C 0.441406 4.300781 0.273438 3.617188 0.140625 2.796875 C 0.015625 1.972656 -0.0703125 1.117188 -0.125 0.234375 C -0.1875 -0.640625 -0.222656 -1.429688 -0.234375 -2.140625 C -0.253906 -2.847656 -0.265625 -3.332031 -0.265625 -3.59375 Z M -0.265625 -3.59375 "/></g></g></g><g fill="#ffffff" fill-opacity="1"><g transform="translate(162.467224, 272.414982)"><g><path d="M 2.171875 -1 C 2.597656 -1.113281 2.984375 -1.492188 3.328125 -2.140625 C 3.679688 -2.796875 3.929688 -3.539062 4.078125 -4.375 C 4.222656 -5.21875 4.257812 -5.992188 4.1875 -6.703125 C 4.113281 -7.410156 3.890625 -7.894531 3.515625 -8.15625 C 3.421875 -7.832031 3.257812 -7.375 3.03125 -6.78125 C 2.800781 -6.1875 2.578125 -5.535156 2.359375 -4.828125 C 2.140625 -4.117188 1.992188 -3.425781 1.921875 -2.75 C 1.859375 -2.070312 1.941406 -1.488281 2.171875 -1 Z M 0 -2.46875 C 0 -2.84375 0.078125 -3.398438 0.234375 -4.140625 C 0.398438 -4.878906 0.625 -5.671875 0.90625 -6.515625 C 1.195312 -7.367188 1.519531 -8.175781 1.875 -8.9375 C 2.238281 -9.707031 2.628906 -10.335938 3.046875 -10.828125 C 3.472656 -11.328125 3.898438 -11.578125 4.328125 -11.578125 C 4.617188 -11.578125 4.820312 -11.445312 4.9375 -11.1875 C 5.050781 -10.925781 5.082031 -10.707031 5.03125 -10.53125 C 4.96875 -10.382812 4.859375 -10.238281 4.703125 -10.09375 C 4.546875 -9.945312 4.410156 -9.789062 4.296875 -9.625 C 4.347656 -9.414062 4.488281 -9.1875 4.71875 -8.9375 C 4.957031 -8.695312 5.191406 -8.375 5.421875 -7.96875 C 5.648438 -7.570312 5.800781 -7.023438 5.875 -6.328125 C 5.945312 -5.628906 5.867188 -4.71875 5.640625 -3.59375 C 5.316406 -2.09375 4.804688 -0.96875 4.109375 -0.21875 C 3.421875 0.53125 2.742188 0.90625 2.078125 0.90625 C 1.523438 0.90625 1.039062 0.625 0.625 0.0625 C 0.207031 -0.5 0 -1.34375 0 -2.46875 Z M 0 -2.46875 "/></g></g></g><g fill="#ffffff" fill-opacity="1"><g transform="translate(170.094345, 272.414982)"><g><path d="M -12.171875 -19.328125 C -12.171875 -19.703125 -11.820312 -20.097656 -11.125 -20.515625 C -10.4375 -20.941406 -9.566406 -21.351562 -8.515625 -21.75 C -7.460938 -22.15625 -6.347656 -22.539062 -5.171875 -22.90625 C -4.003906 -23.269531 -2.929688 -23.582031 -1.953125 -23.84375 C -0.972656 -24.101562 -0.234375 -24.304688 0.265625 -24.453125 C 0.867188 -24.617188 1.289062 -24.71875 1.53125 -24.75 C 1.78125 -24.78125 1.941406 -24.875 2.015625 -25.03125 C 2.085938 -25.1875 2.164062 -25.507812 2.25 -26 C 2.476562 -27.1875 2.742188 -28.003906 3.046875 -28.453125 C 3.359375 -28.898438 3.65625 -29.125 3.9375 -29.125 C 4.175781 -29.125 4.375 -29 4.53125 -28.75 C 4.6875 -28.507812 4.765625 -28.21875 4.765625 -27.875 C 4.765625 -27.613281 4.75 -27.503906 4.71875 -27.546875 C 4.695312 -27.585938 4.695312 -27.492188 4.71875 -27.265625 C 4.71875 -27.203125 4.722656 -27.128906 4.734375 -27.046875 C 4.753906 -26.960938 4.765625 -26.847656 4.765625 -26.703125 C 4.765625 -26.328125 4.691406 -26.140625 4.546875 -26.140625 C 4.398438 -26.140625 4.253906 -26.113281 4.109375 -26.0625 C 3.972656 -26.019531 3.90625 -25.769531 3.90625 -25.3125 C 4.25 -25.3125 4.628906 -25.359375 5.046875 -25.453125 C 5.460938 -25.554688 5.832031 -25.625 6.15625 -25.65625 C 7.425781 -25.882812 8.695312 -26.09375 9.96875 -26.28125 C 11.238281 -26.46875 12.539062 -26.5625 13.875 -26.5625 C 14.5625 -26.5625 15.0625 -26.414062 15.375 -26.125 C 15.695312 -25.84375 15.816406 -25.554688 15.734375 -25.265625 C 15.648438 -24.984375 15.332031 -24.84375 14.78125 -24.84375 C 14.71875 -25.070312 14.679688 -25.175781 14.671875 -25.15625 C 14.660156 -25.144531 14.523438 -25.164062 14.265625 -25.21875 C 14.148438 -25.25 13.914062 -25.265625 13.5625 -25.265625 C 12.957031 -25.265625 12.15625 -25.195312 11.15625 -25.0625 C 10.164062 -24.9375 9.132812 -24.785156 8.0625 -24.609375 C 6.988281 -24.441406 6.03125 -24.273438 5.1875 -24.109375 C 4.351562 -23.953125 3.804688 -23.847656 3.546875 -23.796875 L 2.6875 -14.90625 C 2.65625 -14.707031 2.644531 -14.488281 2.65625 -14.25 C 2.675781 -14.019531 2.6875 -13.789062 2.6875 -13.5625 C 2.6875 -13.28125 2.664062 -13.09375 2.625 -13 C 2.582031 -12.914062 2.5625 -12.710938 2.5625 -12.390625 C 2.5625 -11.753906 2.570312 -11.023438 2.59375 -10.203125 C 2.625 -9.378906 2.613281 -8.738281 2.5625 -8.28125 C 2.53125 -8.019531 2.503906 -7.503906 2.484375 -6.734375 C 2.472656 -5.972656 2.457031 -5.085938 2.4375 -4.078125 C 2.425781 -3.066406 2.421875 -2.046875 2.421875 -1.015625 C 2.421875 0.00390625 2.421875 0.929688 2.421875 1.765625 C 2.421875 2.609375 2.4375 3.21875 2.46875 3.59375 C 2.46875 3.914062 2.503906 4.398438 2.578125 5.046875 C 2.648438 5.703125 2.664062 6.285156 2.625 6.796875 C 2.582031 7.316406 2.375 7.578125 2 7.578125 C 1.445312 7.578125 1.113281 7.273438 1 6.671875 C 0.882812 6.066406 0.828125 5.503906 0.828125 4.984375 C 0.734375 3.941406 0.679688 2.726562 0.671875 1.34375 C 0.660156 -0.0390625 0.660156 -1.425781 0.671875 -2.8125 C 0.679688 -4.195312 0.6875 -5.410156 0.6875 -6.453125 L 0.828125 -8.5 C 0.828125 -8.90625 0.828125 -9.523438 0.828125 -10.359375 C 0.828125 -11.191406 0.835938 -12.078125 0.859375 -13.015625 C 0.890625 -13.960938 0.921875 -14.828125 0.953125 -15.609375 C 0.984375 -16.390625 1.023438 -16.9375 1.078125 -17.25 C 1.140625 -17.539062 1.175781 -17.882812 1.1875 -18.28125 C 1.207031 -18.6875 1.226562 -19.035156 1.25 -19.328125 L 1.640625 -23.359375 C 1.523438 -23.328125 1.269531 -23.269531 0.875 -23.1875 C 0.488281 -23.101562 0.179688 -23.03125 -0.046875 -22.96875 C -1.460938 -22.625 -2.8125 -22.253906 -4.09375 -21.859375 C -5.382812 -21.472656 -6.707031 -21.019531 -8.0625 -20.5 C -8.320312 -20.382812 -8.5625 -20.257812 -8.78125 -20.125 C -9 -20 -9.238281 -19.878906 -9.5 -19.765625 C -9.84375 -19.617188 -10.0625 -19.515625 -10.15625 -19.453125 C -10.257812 -19.398438 -10.3125 -19.328125 -10.3125 -19.234375 C -10.3125 -19.148438 -10.382812 -18.96875 -10.53125 -18.6875 C -10.644531 -18.65625 -10.757812 -18.628906 -10.875 -18.609375 C -10.988281 -18.597656 -11.117188 -18.59375 -11.265625 -18.59375 C -11.492188 -18.59375 -11.703125 -18.640625 -11.890625 -18.734375 C -12.078125 -18.835938 -12.171875 -19.035156 -12.171875 -19.328125 Z M -12.171875 -19.328125 "/></g></g></g><g fill="#ffffff" fill-opacity="1"><g transform="translate(175.121311, 272.414982)"><g><path d="M 2.171875 -1 C 2.597656 -1.113281 2.984375 -1.492188 3.328125 -2.140625 C 3.679688 -2.796875 3.929688 -3.539062 4.078125 -4.375 C 4.222656 -5.21875 4.257812 -5.992188 4.1875 -6.703125 C 4.113281 -7.410156 3.890625 -7.894531 3.515625 -8.15625 C 3.421875 -7.832031 3.257812 -7.375 3.03125 -6.78125 C 2.800781 -6.1875 2.578125 -5.535156 2.359375 -4.828125 C 2.140625 -4.117188 1.992188 -3.425781 1.921875 -2.75 C 1.859375 -2.070312 1.941406 -1.488281 2.171875 -1 Z M 0 -2.46875 C 0 -2.84375 0.078125 -3.398438 0.234375 -4.140625 C 0.398438 -4.878906 0.625 -5.671875 0.90625 -6.515625 C 1.195312 -7.367188 1.519531 -8.175781 1.875 -8.9375 C 2.238281 -9.707031 2.628906 -10.335938 3.046875 -10.828125 C 3.472656 -11.328125 3.898438 -11.578125 4.328125 -11.578125 C 4.617188 -11.578125 4.820312 -11.445312 4.9375 -11.1875 C 5.050781 -10.925781 5.082031 -10.707031 5.03125 -10.53125 C 4.96875 -10.382812 4.859375 -10.238281 4.703125 -10.09375 C 4.546875 -9.945312 4.410156 -9.789062 4.296875 -9.625 C 4.347656 -9.414062 4.488281 -9.1875 4.71875 -8.9375 C 4.957031 -8.695312 5.191406 -8.375 5.421875 -7.96875 C 5.648438 -7.570312 5.800781 -7.023438 5.875 -6.328125 C 5.945312 -5.628906 5.867188 -4.71875 5.640625 -3.59375 C 5.316406 -2.09375 4.804688 -0.96875 4.109375 -0.21875 C 3.421875 0.53125 2.742188 0.90625 2.078125 0.90625 C 1.523438 0.90625 1.039062 0.625 0.625 0.0625 C 0.207031 -0.5 0 -1.34375 0 -2.46875 Z M 0 -2.46875 "/></g></g></g><g fill="#ffffff" fill-opacity="1"><g transform="translate(182.748431, 272.414982)"><g><path d="M 0 16 C 0.570312 16 1.15625 15.707031 1.75 15.125 C 2.34375 14.550781 2.785156 14.015625 3.078125 13.515625 C 4.085938 11.816406 4.726562 10.015625 5 8.109375 C 5.28125 6.203125 5.519531 4.363281 5.71875 2.59375 L 5.890625 0.09375 C 5.722656 0.144531 5.457031 0.363281 5.09375 0.75 C 4.726562 1.144531 4.378906 1.554688 4.046875 1.984375 C 3.710938 2.421875 3.488281 2.726562 3.375 2.90625 C 3.0625 3.3125 2.664062 3.851562 2.1875 4.53125 C 1.707031 5.207031 1.238281 5.90625 0.78125 6.625 C 0.320312 7.351562 -0.0234375 7.988281 -0.265625 8.53125 C -0.347656 8.769531 -0.503906 9.175781 -0.734375 9.75 C -0.960938 10.332031 -1.171875 10.976562 -1.359375 11.6875 C -1.546875 12.394531 -1.660156 13.070312 -1.703125 13.71875 C -1.753906 14.363281 -1.65625 14.90625 -1.40625 15.34375 C -1.164062 15.78125 -0.695312 16 0 16 Z M -0.484375 -3.6875 C -0.484375 -4.375 -0.273438 -5.191406 0.140625 -6.140625 C 0.566406 -7.097656 1.125 -8.023438 1.8125 -8.921875 C 2.507812 -9.816406 3.253906 -10.5625 4.046875 -11.15625 C 4.847656 -11.75 5.640625 -12.046875 6.421875 -12.046875 C 7.222656 -12.046875 7.789062 -11.753906 8.125 -11.171875 C 8.457031 -10.597656 8.4375 -10.023438 8.0625 -9.453125 C 7.71875 -9.484375 7.484375 -9.613281 7.359375 -9.84375 C 7.242188 -10.070312 7.128906 -10.300781 7.015625 -10.53125 C 6.898438 -10.757812 6.6875 -10.875 6.375 -10.875 C 5.738281 -10.875 5.085938 -10.570312 4.421875 -9.96875 C 3.753906 -9.363281 3.140625 -8.617188 2.578125 -7.734375 C 2.015625 -6.859375 1.554688 -5.984375 1.203125 -5.109375 C 0.859375 -4.242188 0.6875 -3.535156 0.6875 -2.984375 C 1.207031 -3.128906 1.671875 -3.425781 2.078125 -3.875 C 2.484375 -4.320312 2.832031 -4.691406 3.125 -4.984375 C 3.40625 -5.304688 3.726562 -5.710938 4.09375 -6.203125 C 4.457031 -6.691406 4.769531 -7.125 5.03125 -7.5 C 5.175781 -7.726562 5.363281 -8.015625 5.59375 -8.359375 C 5.820312 -8.710938 6.109375 -8.890625 6.453125 -8.890625 C 6.773438 -8.890625 7.019531 -8.703125 7.1875 -8.328125 C 7.363281 -7.953125 7.476562 -7.476562 7.53125 -6.90625 C 7.59375 -6.34375 7.625 -5.78125 7.625 -5.21875 C 7.625 -4.65625 7.625 -4.1875 7.625 -3.8125 C 7.851562 -3.875 8.207031 -4.09375 8.6875 -4.46875 C 9.164062 -4.84375 9.691406 -5.265625 10.265625 -5.734375 C 10.847656 -6.210938 11.421875 -6.632812 11.984375 -7 C 12.546875 -7.363281 13.015625 -7.546875 13.390625 -7.546875 C 13.566406 -7.546875 13.679688 -7.453125 13.734375 -7.265625 C 13.796875 -7.078125 13.785156 -6.894531 13.703125 -6.71875 C 13.671875 -6.6875 13.457031 -6.519531 13.0625 -6.21875 C 12.675781 -5.914062 12.210938 -5.566406 11.671875 -5.171875 C 11.140625 -4.785156 10.617188 -4.390625 10.109375 -3.984375 C 9.609375 -3.578125 9.226562 -3.242188 8.96875 -2.984375 C 8.738281 -2.785156 8.492188 -2.613281 8.234375 -2.46875 C 7.972656 -2.320312 7.816406 -2.0625 7.765625 -1.6875 C 7.671875 -0.882812 7.625 -0.117188 7.625 0.609375 C 7.625 1.472656 7.554688 2.453125 7.421875 3.546875 C 7.296875 4.648438 7.117188 5.769531 6.890625 6.90625 C 6.660156 8.050781 6.394531 9.128906 6.09375 10.140625 C 5.789062 11.148438 5.460938 12.003906 5.109375 12.703125 C 4.273438 14.347656 3.398438 15.507812 2.484375 16.1875 C 1.578125 16.863281 0.75 17.203125 0 17.203125 C -0.8125 17.203125 -1.476562 16.90625 -2 16.3125 C -2.519531 15.726562 -2.78125 15 -2.78125 14.125 C -2.78125 13.207031 -2.71875 12.414062 -2.59375 11.75 C -2.476562 11.082031 -2.296875 10.4375 -2.046875 9.8125 C -1.804688 9.195312 -1.484375 8.484375 -1.078125 7.671875 C -0.210938 5.910156 0.757812 4.304688 1.84375 2.859375 C 2.925781 1.410156 4.132812 -0.0195312 5.46875 -1.4375 C 5.84375 -1.832031 6.003906 -2.5 5.953125 -3.4375 C 5.910156 -4.382812 5.890625 -5.304688 5.890625 -6.203125 C 5.660156 -6.109375 5.335938 -5.75 4.921875 -5.125 C 4.503906 -4.507812 4.046875 -3.984375 3.546875 -3.546875 C 3.265625 -3.265625 2.851562 -2.882812 2.3125 -2.40625 C 1.78125 -1.925781 1.238281 -1.6875 0.6875 -1.6875 C 0.257812 -1.6875 -0.03125 -1.800781 -0.1875 -2.03125 C -0.351562 -2.269531 -0.441406 -2.546875 -0.453125 -2.859375 C -0.472656 -3.179688 -0.484375 -3.457031 -0.484375 -3.6875 Z M -0.484375 -3.6875 "/></g></g></g><g fill="#ffffff" fill-opacity="1"><g transform="translate(194.839148, 272.414982)"><g><path d="M 0.609375 -0.171875 C 0.316406 -0.171875 0.140625 -0.347656 0.078125 -0.703125 C 0.0234375 -1.066406 0.015625 -1.453125 0.046875 -1.859375 C 0.078125 -2.265625 0.09375 -2.507812 0.09375 -2.59375 C 0.0625 -3.113281 0.0507812 -3.640625 0.0625 -4.171875 C 0.0820312 -4.710938 0.078125 -5.257812 0.046875 -5.8125 C 0.046875 -6.007812 0.0507812 -6.390625 0.0625 -6.953125 C 0.0820312 -7.515625 0.125 -8.113281 0.1875 -8.75 C 0.257812 -9.382812 0.367188 -9.929688 0.515625 -10.390625 C 0.660156 -10.859375 0.847656 -11.09375 1.078125 -11.09375 C 1.660156 -11.09375 1.957031 -10.90625 1.96875 -10.53125 C 1.988281 -10.15625 1.96875 -9.664062 1.90625 -9.0625 C 1.875 -8.851562 1.859375 -8.625 1.859375 -8.375 C 1.859375 -8.132812 1.859375 -7.898438 1.859375 -7.671875 C 1.859375 -7.378906 1.84375 -7.191406 1.8125 -7.109375 C 1.789062 -7.023438 1.78125 -6.835938 1.78125 -6.546875 C 2.09375 -6.773438 2.378906 -7.039062 2.640625 -7.34375 C 2.898438 -7.644531 3.363281 -7.796875 4.03125 -7.796875 C 4.226562 -7.796875 4.492188 -7.800781 4.828125 -7.8125 C 5.160156 -7.832031 5.515625 -7.84375 5.890625 -7.84375 C 6.523438 -7.84375 7.117188 -7.804688 7.671875 -7.734375 C 8.222656 -7.660156 8.5 -7.476562 8.5 -7.1875 C 8.5 -6.90625 8.34375 -6.71875 8.03125 -6.625 C 7.726562 -6.539062 7.363281 -6.5 6.9375 -6.5 C 6.644531 -6.5 6.347656 -6.503906 6.046875 -6.515625 C 5.742188 -6.535156 5.476562 -6.546875 5.25 -6.546875 C 4.4375 -6.546875 3.890625 -6.5 3.609375 -6.40625 C 3.335938 -6.320312 3.03125 -5.992188 2.6875 -5.421875 C 2.488281 -5.046875 2.296875 -4.640625 2.109375 -4.203125 C 1.921875 -3.765625 1.78125 -3.289062 1.6875 -2.78125 C 1.601562 -2.394531 1.566406 -2 1.578125 -1.59375 C 1.597656 -1.195312 1.554688 -0.859375 1.453125 -0.578125 C 1.347656 -0.304688 1.066406 -0.171875 0.609375 -0.171875 Z M 0.609375 -0.171875 "/></g></g></g><g fill="#ffffff" fill-opacity="1"><g transform="translate(201.902898, 272.414982)"><g><path d="M 0 -4.375 C 0 -4.976562 0.140625 -5.726562 0.421875 -6.625 C 0.710938 -7.519531 1.117188 -8.410156 1.640625 -9.296875 C 2.160156 -10.179688 2.757812 -10.910156 3.4375 -11.484375 C 4.125 -12.066406 4.84375 -12.359375 5.59375 -12.359375 C 6.28125 -12.359375 6.84375 -12.15625 7.28125 -11.75 C 7.71875 -11.34375 7.976562 -10.925781 8.0625 -10.5 C 8.144531 -10.082031 8 -9.875 7.625 -9.875 C 7.332031 -9.875 7.035156 -10.039062 6.734375 -10.375 C 6.429688 -10.707031 6.078125 -10.875 5.671875 -10.875 C 5.359375 -10.875 4.976562 -10.6875 4.53125 -10.3125 C 4.082031 -9.9375 3.539062 -9.203125 2.90625 -8.109375 C 2.613281 -7.640625 2.34375 -7.035156 2.09375 -6.296875 C 1.851562 -5.566406 1.734375 -4.84375 1.734375 -4.125 C 1.796875 -4.175781 1.816406 -4.191406 1.796875 -4.171875 C 1.785156 -4.160156 1.835938 -4.210938 1.953125 -4.328125 L 2.296875 -4.859375 C 2.523438 -5.203125 2.789062 -5.644531 3.09375 -6.1875 C 3.394531 -6.738281 3.703125 -7.296875 4.015625 -7.859375 C 4.335938 -8.429688 4.628906 -8.910156 4.890625 -9.296875 C 5.148438 -9.679688 5.351562 -9.875 5.5 -9.875 C 6.019531 -9.875 6.320312 -9.6875 6.40625 -9.3125 C 6.5 -8.9375 6.535156 -8.472656 6.515625 -7.921875 C 6.503906 -7.378906 6.554688 -6.832031 6.671875 -6.28125 C 6.847656 -5.5 7.113281 -4.925781 7.46875 -4.5625 C 7.832031 -4.207031 8.25 -4.03125 8.71875 -4.03125 C 9.519531 -4.03125 10.414062 -4.519531 11.40625 -5.5 C 11.800781 -5.875 12.085938 -6.1875 12.265625 -6.4375 C 12.441406 -6.6875 12.671875 -6.96875 12.953125 -7.28125 C 13.160156 -7.570312 13.421875 -7.71875 13.734375 -7.71875 C 14.054688 -7.71875 14.195312 -7.445312 14.15625 -6.90625 C 14.113281 -6.375 13.539062 -5.570312 12.4375 -4.5 L 11.140625 -3.46875 C 10.296875 -2.882812 9.488281 -2.59375 8.71875 -2.59375 C 7.988281 -2.59375 7.359375 -2.8125 6.828125 -3.25 C 6.296875 -3.6875 5.882812 -4.222656 5.59375 -4.859375 C 5.300781 -5.492188 5.15625 -6.113281 5.15625 -6.71875 C 4.957031 -6.570312 4.726562 -6.253906 4.46875 -5.765625 C 4.207031 -5.273438 3.925781 -4.75 3.625 -4.1875 C 3.320312 -3.625 3.007812 -3.128906 2.6875 -2.703125 C 2.363281 -2.285156 2.046875 -2.078125 1.734375 -2.078125 C 0.921875 -2.078125 0.425781 -2.265625 0.25 -2.640625 C 0.0820312 -3.015625 0 -3.59375 0 -4.375 Z M 0 -4.375 "/></g></g></g><g fill="#ffffff" fill-opacity="1"><g transform="translate(214.470319, 272.414982)"><g><path d="M 2.984375 2.6875 C 3.484375 2.425781 3.984375 2.035156 4.484375 1.515625 C 4.992188 0.992188 5.441406 0.445312 5.828125 -0.125 C 6.222656 -0.707031 6.476562 -1.210938 6.59375 -1.640625 L 4.421875 0.21875 C 4.078125 0.53125 3.820312 0.765625 3.65625 0.921875 C 3.5 1.085938 3.382812 1.285156 3.3125 1.515625 C 3.238281 1.742188 3.128906 2.132812 2.984375 2.6875 Z M 4.078125 -1.125 C 4.222656 -1.207031 4.304688 -1.269531 4.328125 -1.3125 C 4.359375 -1.363281 4.429688 -1.445312 4.546875 -1.5625 C 4.722656 -1.675781 4.882812 -1.789062 5.03125 -1.90625 C 5.664062 -2.457031 6.148438 -2.863281 6.484375 -3.125 C 6.816406 -3.382812 7.046875 -3.597656 7.171875 -3.765625 C 7.304688 -3.941406 7.378906 -4.144531 7.390625 -4.375 C 7.398438 -4.601562 7.40625 -4.96875 7.40625 -5.46875 C 7.40625 -6.125 7.273438 -6.453125 7.015625 -6.453125 C 6.816406 -6.453125 6.554688 -6.253906 6.234375 -5.859375 C 5.921875 -5.472656 5.601562 -4.984375 5.28125 -4.390625 C 4.96875 -3.804688 4.695312 -3.21875 4.46875 -2.625 C 4.238281 -2.03125 4.109375 -1.53125 4.078125 -1.125 Z M 0 -0.171875 C 0 -0.515625 0.0234375 -1.1875 0.078125 -2.1875 C 0.140625 -3.1875 0.234375 -4.328125 0.359375 -5.609375 C 0.492188 -6.898438 0.660156 -8.144531 0.859375 -9.34375 C 1.066406 -10.539062 1.3125 -11.535156 1.59375 -12.328125 C 1.882812 -13.117188 2.21875 -13.515625 2.59375 -13.515625 C 2.800781 -13.515625 3.003906 -13.457031 3.203125 -13.34375 C 3.296875 -13.03125 3.34375 -12.800781 3.34375 -12.65625 C 3.34375 -12.507812 3.316406 -12.347656 3.265625 -12.171875 C 3.222656 -12.003906 3.144531 -11.675781 3.03125 -11.1875 C 2.625 -9.132812 2.328125 -7.117188 2.140625 -5.140625 C 1.953125 -3.160156 1.859375 -1.085938 1.859375 1.078125 C 2.066406 0.929688 2.273438 0.535156 2.484375 -0.109375 C 2.703125 -0.753906 2.957031 -1.503906 3.25 -2.359375 C 3.539062 -3.210938 3.859375 -4.054688 4.203125 -4.890625 C 4.546875 -5.734375 4.945312 -6.425781 5.40625 -6.96875 C 5.875 -7.519531 6.410156 -7.796875 7.015625 -7.796875 C 7.648438 -7.796875 8.117188 -7.5 8.421875 -6.90625 C 8.734375 -6.320312 8.890625 -5.722656 8.890625 -5.109375 C 9.054688 -5.171875 9.253906 -5.28125 9.484375 -5.4375 C 9.722656 -5.59375 9.925781 -5.726562 10.09375 -5.84375 C 10.382812 -6.050781 10.722656 -6.296875 11.109375 -6.578125 C 11.503906 -6.867188 11.890625 -7.128906 12.265625 -7.359375 C 12.640625 -7.597656 12.941406 -7.71875 13.171875 -7.71875 C 13.429688 -7.71875 13.5625 -7.539062 13.5625 -7.1875 C 13.5625 -7.050781 13.34375 -6.804688 12.90625 -6.453125 C 12.476562 -6.109375 11.972656 -5.734375 11.390625 -5.328125 C 10.816406 -4.921875 10.273438 -4.546875 9.765625 -4.203125 C 9.265625 -3.859375 8.941406 -3.597656 8.796875 -3.421875 C 8.710938 -3.304688 8.578125 -2.976562 8.390625 -2.4375 C 8.203125 -1.90625 7.941406 -1.269531 7.609375 -0.53125 C 7.273438 0.195312 6.828125 0.929688 6.265625 1.671875 C 5.703125 2.410156 4.972656 3.035156 4.078125 3.546875 C 3.898438 3.640625 3.703125 3.726562 3.484375 3.8125 C 3.273438 3.894531 3.097656 4 2.953125 4.125 C 2.742188 4.238281 2.570312 4.582031 2.4375 5.15625 C 2.3125 5.738281 2.21875 6.332031 2.15625 6.9375 C 2.101562 7.539062 2.078125 7.972656 2.078125 8.234375 C 2.078125 8.753906 2.113281 9.320312 2.1875 9.9375 C 2.257812 10.5625 2.28125 11.085938 2.25 11.515625 C 2.21875 11.953125 2.046875 12.171875 1.734375 12.171875 C 1.410156 12.171875 1.21875 12.070312 1.15625 11.875 C 1.101562 11.675781 1.050781 11.390625 1 11.015625 C 0.738281 9.191406 0.503906 7.332031 0.296875 5.4375 C 0.0976562 3.539062 0 1.671875 0 -0.171875 Z M 0 -0.171875 "/></g></g></g><g fill="#ffffff" fill-opacity="1"><g transform="translate(226.604374, 272.414982)"><g><path d="M -0.265625 -3.59375 L 0 -8.5 C 0.03125 -8.8125 0.0546875 -9.191406 0.078125 -9.640625 C 0.109375 -10.085938 0.140625 -10.472656 0.171875 -10.796875 C 0.234375 -12.234375 0.414062 -13.660156 0.71875 -15.078125 C 1.019531 -16.492188 1.34375 -17.894531 1.6875 -19.28125 C 1.894531 -19.863281 2.054688 -20.25 2.171875 -20.4375 C 2.285156 -20.625 2.441406 -20.71875 2.640625 -20.71875 C 2.734375 -20.71875 2.835938 -20.707031 2.953125 -20.6875 C 3.066406 -20.675781 3.195312 -20.65625 3.34375 -20.625 C 3.476562 -19.96875 3.445312 -19.179688 3.25 -18.265625 C 3.050781 -17.359375 2.894531 -16.53125 2.78125 -15.78125 C 2.457031 -13.78125 2.191406 -11.582031 1.984375 -9.1875 C 1.785156 -6.789062 1.6875 -4.507812 1.6875 -2.34375 L 1.828125 2.515625 L 2.171875 1.6875 C 2.578125 0.53125 2.914062 -0.441406 3.1875 -1.234375 C 3.457031 -2.023438 3.773438 -2.8125 4.140625 -3.59375 C 4.503906 -4.375 4.988281 -5.328125 5.59375 -6.453125 C 5.90625 -7.035156 6.210938 -7.523438 6.515625 -7.921875 C 6.828125 -8.328125 7.300781 -8.53125 7.9375 -8.53125 C 8.25 -8.53125 8.46875 -8.300781 8.59375 -7.84375 C 8.726562 -7.382812 8.8125 -6.878906 8.84375 -6.328125 C 8.875 -5.773438 8.890625 -5.367188 8.890625 -5.109375 C 8.890625 -4.304688 8.910156 -3.617188 8.953125 -3.046875 C 8.992188 -2.484375 9.160156 -1.929688 9.453125 -1.390625 C 10.117188 -1.535156 10.679688 -1.960938 11.140625 -2.671875 C 11.597656 -3.378906 12.015625 -3.988281 12.390625 -4.5 C 12.597656 -4.820312 12.785156 -5.140625 12.953125 -5.453125 C 13.128906 -5.773438 13.304688 -6.109375 13.484375 -6.453125 C 13.742188 -6.921875 13.953125 -7.238281 14.109375 -7.40625 C 14.265625 -7.582031 14.429688 -7.671875 14.609375 -7.671875 C 14.691406 -7.671875 14.847656 -7.640625 15.078125 -7.578125 C 15.222656 -7.066406 15.191406 -6.648438 14.984375 -6.328125 C 14.785156 -6.003906 14.570312 -5.628906 14.34375 -5.203125 C 14.144531 -4.828125 13.867188 -4.34375 13.515625 -3.75 C 13.171875 -3.15625 12.78125 -2.578125 12.34375 -2.015625 C 11.914062 -1.453125 11.457031 -0.972656 10.96875 -0.578125 C 10.476562 -0.191406 9.972656 0 9.453125 0 C 8.492188 0 7.867188 -0.851562 7.578125 -2.5625 C 7.492188 -3.050781 7.4375 -3.707031 7.40625 -4.53125 C 7.382812 -5.351562 7.375 -6.066406 7.375 -6.671875 C 7.164062 -6.523438 6.914062 -6.191406 6.625 -5.671875 C 6.34375 -5.148438 6.054688 -4.566406 5.765625 -3.921875 C 5.472656 -3.273438 5.203125 -2.644531 4.953125 -2.03125 C 4.710938 -1.425781 4.519531 -0.96875 4.375 -0.65625 C 4.03125 0.238281 3.75 1.132812 3.53125 2.03125 C 3.3125 2.925781 3.070312 3.78125 2.8125 4.59375 C 2.664062 5.050781 2.5 5.34375 2.3125 5.46875 C 2.125 5.601562 1.832031 5.671875 1.4375 5.671875 C 1.113281 5.671875 0.847656 5.394531 0.640625 4.84375 C 0.441406 4.300781 0.273438 3.617188 0.140625 2.796875 C 0.015625 1.972656 -0.0703125 1.117188 -0.125 0.234375 C -0.1875 -0.640625 -0.222656 -1.429688 -0.234375 -2.140625 C -0.253906 -2.847656 -0.265625 -3.332031 -0.265625 -3.59375 Z M -0.265625 -3.59375 "/></g></g></g><g fill="#ffffff" fill-opacity="1"><g transform="translate(239.82183, 272.414982)"><g><path d="M 1.25 17.375 C 2.09375 17.375 2.84375 17.128906 3.5 16.640625 C 4.164062 16.148438 4.753906 15.554688 5.265625 14.859375 C 5.773438 14.171875 6.203125 13.523438 6.546875 12.921875 C 6.859375 12.304688 7.207031 11.4375 7.59375 10.3125 C 7.988281 9.1875 8.359375 7.96875 8.703125 6.65625 C 9.054688 5.34375 9.351562 4.097656 9.59375 2.921875 C 9.84375 1.753906 10 0.835938 10.0625 0.171875 C 9.707031 0.378906 9.390625 0.597656 9.109375 0.828125 L 4.859375 4.59375 C 4.742188 4.707031 4.625 4.84375 4.5 5 C 4.382812 5.164062 4.242188 5.320312 4.078125 5.46875 C 3.378906 6.15625 2.753906 6.84375 2.203125 7.53125 C 1.660156 8.226562 1.113281 9 0.5625 9.84375 C 0.300781 10.21875 0.03125 10.691406 -0.25 11.265625 C -0.539062 11.847656 -0.78125 12.460938 -0.96875 13.109375 C -1.15625 13.765625 -1.226562 14.410156 -1.1875 15.046875 C -1.144531 15.679688 -0.910156 16.226562 -0.484375 16.6875 C -0.0976562 17.144531 0.476562 17.375 1.25 17.375 Z M 2.25 -3.8125 C 2.6875 -4.039062 3.191406 -4.492188 3.765625 -5.171875 C 4.347656 -5.859375 4.957031 -6.671875 5.59375 -7.609375 C 6.226562 -8.546875 6.847656 -9.507812 7.453125 -10.5 C 8.054688 -11.5 8.609375 -12.425781 9.109375 -13.28125 C 9.617188 -14.132812 10.019531 -14.820312 10.3125 -15.34375 C 10.664062 -15.914062 10.90625 -16.296875 11.03125 -16.484375 C 11.15625 -16.679688 11.453125 -16.78125 11.921875 -16.78125 C 12.148438 -16.78125 12.320312 -16.613281 12.4375 -16.28125 C 12.550781 -15.945312 12.632812 -15.539062 12.6875 -15.0625 C 12.75 -14.582031 12.78125 -14.125 12.78125 -13.6875 C 12.78125 -13.257812 12.78125 -12.929688 12.78125 -12.703125 L 12.78125 -9.359375 C 12.78125 -8.640625 12.742188 -7.875 12.671875 -7.0625 C 12.597656 -6.25 12.53125 -5.492188 12.46875 -4.796875 C 12.414062 -4.109375 12.390625 -3.566406 12.390625 -3.171875 L 18.59375 -6.765625 C 18.738281 -6.847656 19.039062 -7.046875 19.5 -7.359375 C 19.96875 -7.679688 20.359375 -7.84375 20.671875 -7.84375 C 20.929688 -7.84375 21.0625 -7.6875 21.0625 -7.375 C 21.0625 -7.164062 20.820312 -6.890625 20.34375 -6.546875 C 19.875 -6.203125 19.367188 -5.882812 18.828125 -5.59375 C 18.296875 -5.300781 17.941406 -5.097656 17.765625 -4.984375 C 16.867188 -4.492188 15.976562 -3.96875 15.09375 -3.40625 C 14.21875 -2.84375 13.363281 -2.269531 12.53125 -1.6875 C 12.320312 -1.539062 12.207031 -1.414062 12.1875 -1.3125 C 12.175781 -1.21875 12.144531 -1.007812 12.09375 -0.6875 C 11.894531 0.726562 11.601562 2.332031 11.21875 4.125 C 10.84375 5.914062 10.378906 7.660156 9.828125 9.359375 C 9.285156 11.066406 8.65625 12.5 7.9375 13.65625 C 7.53125 14.4375 6.984375 15.207031 6.296875 15.96875 C 5.617188 16.738281 4.863281 17.375 4.03125 17.875 C 3.195312 18.382812 2.300781 18.640625 1.34375 18.640625 C 0.269531 18.640625 -0.625 18.273438 -1.34375 17.546875 C -2.0625 16.828125 -2.421875 15.816406 -2.421875 14.515625 C -2.421875 13.566406 -2.175781 12.539062 -1.6875 11.4375 C -1.195312 10.34375 -0.539062 9.222656 0.28125 8.078125 C 1.101562 6.941406 1.988281 5.851562 2.9375 4.8125 C 3.894531 3.769531 4.847656 2.820312 5.796875 1.96875 C 6.753906 1.113281 7.609375 0.414062 8.359375 -0.125 C 8.503906 -0.269531 8.632812 -0.378906 8.75 -0.453125 C 8.863281 -0.523438 9.007812 -0.617188 9.1875 -0.734375 C 9.59375 -1.078125 9.890625 -1.3125 10.078125 -1.4375 C 10.265625 -1.570312 10.375 -1.828125 10.40625 -2.203125 C 10.570312 -3.679688 10.726562 -5.039062 10.875 -6.28125 C 11.019531 -7.53125 11.128906 -8.8125 11.203125 -10.125 C 11.273438 -11.4375 11.3125 -12.914062 11.3125 -14.5625 C 11.226562 -14.507812 10.988281 -14.171875 10.59375 -13.546875 C 10.207031 -12.921875 9.765625 -12.195312 9.265625 -11.375 C 8.773438 -10.550781 8.3125 -9.785156 7.875 -9.078125 C 7.445312 -8.367188 7.148438 -7.882812 6.984375 -7.625 C 6.546875 -6.9375 6.015625 -6.117188 5.390625 -5.171875 C 4.773438 -4.234375 4.175781 -3.492188 3.59375 -2.953125 C 3.050781 -2.453125 2.546875 -2.203125 2.078125 -2.203125 C 1.617188 -2.203125 1.226562 -2.425781 0.90625 -2.875 C 0.59375 -3.320312 0.4375 -3.925781 0.4375 -4.6875 C 0.4375 -5.144531 0.492188 -5.71875 0.609375 -6.40625 C 0.722656 -7.101562 0.894531 -7.789062 1.125 -8.46875 C 1.351562 -9.15625 1.617188 -9.726562 1.921875 -10.1875 C 2.234375 -10.644531 2.5625 -10.875 2.90625 -10.875 C 3.394531 -10.875 3.640625 -10.703125 3.640625 -10.359375 C 3.640625 -10.015625 3.523438 -9.53125 3.296875 -8.90625 C 3.066406 -8.28125 2.832031 -7.535156 2.59375 -6.671875 C 2.363281 -5.804688 2.25 -4.851562 2.25 -3.8125 Z M 2.25 -3.8125 "/></g></g></g><path stroke-linecap="butt" transform="matrix(0.677448, 0, 0, 0.677448, 40.310469, 58.821752)" fill="none" stroke-linejoin="miter" d="M 188.342065 163.548354 L 230.054241 163.548354 C 228.670371 176.308797 225.037709 188.181257 219.156258 199.165732 C 213.315169 210.150208 205.790371 219.773877 196.576097 228.036739 C 187.367589 236.253473 176.919364 242.717304 165.242953 247.433997 C 153.566542 252.104561 141.175131 254.439844 128.06872 254.439844 C 113.884043 254.439844 100.627713 251.775892 88.299729 246.459521 C 76.017875 241.137384 65.229448 233.78557 55.928682 224.398312 C 46.627916 215.01682 39.362594 204.182264 34.132715 191.90041 C 28.89707 179.572426 26.279247 166.316096 26.279247 152.131419 C 26.279247 137.987105 28.89707 124.70771 34.132715 112.299001 C 39.362594 99.884525 46.627916 88.986542 55.928682 79.599284 C 65.229448 70.212026 76.017875 62.860212 88.299729 57.543841 C 100.627713 52.221704 113.797551 49.563519 127.809244 49.563519 C 146.191663 49.563519 163.126784 53.951543 178.60884 62.733357 C 194.137025 71.509405 206.332387 83.168518 215.194927 97.699162 L 183.019928 120.533033 C 175.967953 109.894525 167.6013 101.960332 157.914203 96.724687 C 148.26747 91.494808 138.320897 88.876985 128.06872 88.876985 C 117.084245 88.876985 107.074245 91.731219 98.032955 97.439687 C 88.991665 103.107791 81.812834 110.719081 76.496464 120.273557 C 71.174327 129.833799 68.516141 140.455008 68.516141 152.131419 C 68.516141 163.675209 71.174327 174.232991 76.496464 183.787467 C 81.812834 193.347708 88.991665 200.918635 98.032955 206.494482 C 107.074245 212.076095 117.084245 214.866901 128.06872 214.866901 C 137.97493 214.866901 147.12001 212.658474 155.509727 208.247385 C 163.945574 203.790168 171.084042 197.718434 176.919364 190.014886 C 182.760452 182.317104 186.566098 173.494926 188.342065 163.548354 Z M 188.342065 163.548354 " stroke="#000000" stroke-width="3.653829" stroke-opacity="1" stroke-miterlimit="4"/><g fill="#000000" fill-opacity="1"><g transform="translate(50.906172, 228.861093)"><g><path d="M 117.015625 -59.21875 L 145.265625 -59.21875 C 144.304688 -50.582031 141.847656 -42.539062 137.890625 -35.09375 C 133.929688 -27.65625 128.832031 -21.144531 122.59375 -15.5625 C 116.351562 -9.988281 109.269531 -5.609375 101.34375 -2.421875 C 93.425781 0.753906 85.023438 2.34375 76.140625 2.34375 C 66.546875 2.34375 57.578125 0.546875 49.234375 -3.046875 C 40.890625 -6.648438 33.566406 -11.632812 27.265625 -18 C 20.972656 -24.363281 16.054688 -31.710938 12.515625 -40.046875 C 8.972656 -48.390625 7.203125 -57.363281 7.203125 -66.96875 C 7.203125 -76.5625 8.972656 -85.554688 12.515625 -93.953125 C 16.054688 -102.359375 20.972656 -109.742188 27.265625 -116.109375 C 33.566406 -122.472656 40.890625 -127.453125 49.234375 -131.046875 C 57.578125 -134.648438 66.488281 -136.453125 75.96875 -136.453125 C 88.445312 -136.453125 99.9375 -133.476562 110.4375 -127.53125 C 120.9375 -121.59375 129.1875 -113.707031 135.1875 -103.875 L 113.40625 -88.390625 C 108.601562 -95.585938 102.929688 -100.957031 96.390625 -104.5 C 89.859375 -108.039062 83.109375 -109.8125 76.140625 -109.8125 C 68.703125 -109.8125 61.921875 -107.890625 55.796875 -104.046875 C 49.679688 -100.203125 44.820312 -95.039062 41.21875 -88.5625 C 37.625 -82.082031 35.828125 -74.882812 35.828125 -66.96875 C 35.828125 -59.164062 37.625 -52.023438 41.21875 -45.546875 C 44.820312 -39.066406 49.679688 -33.9375 55.796875 -30.15625 C 61.921875 -26.375 68.703125 -24.484375 76.140625 -24.484375 C 82.867188 -24.484375 89.082031 -25.984375 94.78125 -28.984375 C 100.476562 -31.984375 105.304688 -36.09375 109.265625 -41.3125 C 113.222656 -46.53125 115.804688 -52.5 117.015625 -59.21875 Z M 117.015625 -59.21875 "/></g></g></g></svg>