<svg xmlns="http://www.w3.org/2000/svg" xmlns:xlink="http://www.w3.org/1999/xlink" width="500" zoomAndPan="magnify" viewBox="0 0 375 374.999991" height="500" preserveAspectRatio="xMidYMid meet" version="1.0"><defs><g/><clipPath id="3a20c600ce"><path d="M 88.9375 141 L 130 141 L 130 197 L 88.9375 197 Z M 88.9375 141 " clip-rule="nonzero"/></clipPath><clipPath id="8b28e2a691"><path d="M 133 134.570312 L 135.4375 134.570312 L 135.4375 213.320312 L 133 213.320312 Z M 133 134.570312 " clip-rule="nonzero"/></clipPath></defs><g clip-path="url(#3a20c600ce)"><path fill="#000000" d="M 88.964844 155.902344 L 88.964844 191.789062 C 88.964844 194.601562 91.265625 196.90625 94.078125 196.90625 L 111.894531 196.90625 C 109.066406 193.214844 107.386719 188.597656 107.386719 183.589844 C 107.386719 171.496094 117.175781 161.691406 129.253906 161.691406 L 129.253906 141.570312 L 121.398438 141.570312 C 119.679688 141.570312 118.09375 142.488281 117.238281 143.972656 L 113.308594 150.789062 L 94.078125 150.789062 C 91.265625 150.789062 88.964844 153.089844 88.964844 155.902344 Z M 94.957031 155.964844 C 94.957031 155.558594 95.292969 155.226562 95.699219 155.226562 L 107.316406 155.226562 C 107.726562 155.226562 108.058594 155.558594 108.058594 155.964844 L 108.058594 158.9375 C 108.058594 159.34375 107.722656 159.679688 107.316406 159.679688 L 95.703125 159.679688 C 95.292969 159.679688 94.960938 159.34375 94.960938 158.9375 L 94.960938 155.964844 Z M 94.957031 155.964844 " fill-opacity="1" fill-rule="nonzero"/></g><path fill="#000000" d="M 127.097656 169.234375 C 126.425781 169.332031 125.769531 169.480469 125.128906 169.667969 C 126.910156 170.847656 128.082031 172.871094 128.082031 175.171875 C 128.082031 178.8125 125.132812 181.765625 121.496094 181.765625 C 119.050781 181.765625 116.917969 180.429688 115.78125 178.449219 C 115.449219 179.355469 115.207031 180.304688 115.0625 181.285156 C 113.769531 190.175781 120.621094 197.804688 129.253906 197.804688 L 129.253906 201.972656 C 124.308594 201.972656 119.660156 200.046875 116.164062 196.546875 C 112.667969 193.046875 110.746094 188.394531 110.746094 183.441406 C 110.746094 178.492188 112.667969 173.839844 116.164062 170.339844 C 119.660156 166.839844 124.308594 164.914062 129.253906 164.914062 L 129.253906 169.082031 C 128.546875 169.078125 127.828125 169.128906 127.097656 169.234375 Z M 127.097656 169.234375 " fill-opacity="1" fill-rule="nonzero"/><g clip-path="url(#8b28e2a691)"><path fill="#000000" d="M 133.359375 134.570312 L 135.410156 134.570312 L 135.410156 213.324219 L 133.359375 213.324219 Z M 133.359375 134.570312 " fill-opacity="1" fill-rule="nonzero"/></g><g fill="#000000" fill-opacity="1"><g transform="translate(140.548222, 186.317287)"><g><path d="M 2.03125 -20.328125 L 11.640625 -20.328125 C 13.867188 -20.328125 15.84375 -19.910156 17.5625 -19.078125 C 19.289062 -18.242188 20.628906 -17.0625 21.578125 -15.53125 C 22.523438 -14.007812 23 -12.222656 23 -10.171875 C 23 -8.117188 22.523438 -6.328125 21.578125 -4.796875 C 20.628906 -3.265625 19.289062 -2.082031 17.5625 -1.25 C 15.84375 -0.414062 13.867188 0 11.640625 0 L 2.03125 0 Z M 11.421875 -4.59375 C 13.160156 -4.59375 14.554688 -5.082031 15.609375 -6.0625 C 16.671875 -7.050781 17.203125 -8.421875 17.203125 -10.171875 C 17.203125 -11.910156 16.671875 -13.273438 15.609375 -14.265625 C 14.554688 -15.253906 13.160156 -15.75 11.421875 -15.75 L 7.78125 -15.75 L 7.78125 -4.59375 Z M 11.421875 -4.59375 "/></g></g></g><g fill="#000000" fill-opacity="1"><g transform="translate(161.688519, 186.317287)"><g><path d="M 17.859375 -7.84375 C 17.859375 -7.800781 17.832031 -7.347656 17.78125 -6.484375 L 6.328125 -6.484375 C 6.566406 -5.660156 7.019531 -5.03125 7.6875 -4.59375 C 8.351562 -4.164062 9.191406 -3.953125 10.203125 -3.953125 C 10.953125 -3.953125 11.601562 -4.054688 12.15625 -4.265625 C 12.707031 -4.484375 13.265625 -4.832031 13.828125 -5.3125 L 16.734375 -2.296875 C 15.203125 -0.585938 12.960938 0.265625 10.015625 0.265625 C 8.179688 0.265625 6.566406 -0.0820312 5.171875 -0.78125 C 3.773438 -1.476562 2.691406 -2.445312 1.921875 -3.6875 C 1.160156 -4.925781 0.78125 -6.332031 0.78125 -7.90625 C 0.78125 -9.445312 1.148438 -10.832031 1.890625 -12.0625 C 2.640625 -13.289062 3.671875 -14.253906 4.984375 -14.953125 C 6.304688 -15.648438 7.789062 -16 9.4375 -16 C 11.007812 -16 12.429688 -15.675781 13.703125 -15.03125 C 14.984375 -14.382812 15.992188 -13.445312 16.734375 -12.21875 C 17.484375 -10.988281 17.859375 -9.53125 17.859375 -7.84375 Z M 9.46875 -12.078125 C 8.613281 -12.078125 7.898438 -11.832031 7.328125 -11.34375 C 6.765625 -10.863281 6.40625 -10.207031 6.25 -9.375 L 12.6875 -9.375 C 12.539062 -10.207031 12.179688 -10.863281 11.609375 -11.34375 C 11.035156 -11.832031 10.320312 -12.078125 9.46875 -12.078125 Z M 9.46875 -12.078125 "/></g></g></g><g fill="#000000" fill-opacity="1"><g transform="translate(177.485639, 186.317287)"><g><path d="M 1.765625 -21.546875 L 7.296875 -21.546875 L 7.296875 0 L 1.765625 0 Z M 1.765625 -21.546875 "/></g></g></g><g fill="#000000" fill-opacity="1"><g transform="translate(183.728923, 186.317287)"><g><path d="M 11.671875 -16 C 13.109375 -16 14.410156 -15.664062 15.578125 -15 C 16.753906 -14.332031 17.6875 -13.382812 18.375 -12.15625 C 19.0625 -10.925781 19.40625 -9.5 19.40625 -7.875 C 19.40625 -6.25 19.0625 -4.820312 18.375 -3.59375 C 17.6875 -2.363281 16.753906 -1.410156 15.578125 -0.734375 C 14.410156 -0.0664062 13.109375 0.265625 11.671875 0.265625 C 9.835938 0.265625 8.378906 -0.285156 7.296875 -1.390625 L 7.296875 5.640625 L 1.765625 5.640625 L 1.765625 -15.75 L 7.03125 -15.75 L 7.03125 -14.171875 C 8.050781 -15.390625 9.597656 -16 11.671875 -16 Z M 10.515625 -4.125 C 11.484375 -4.125 12.273438 -4.457031 12.890625 -5.125 C 13.515625 -5.789062 13.828125 -6.707031 13.828125 -7.875 C 13.828125 -9.03125 13.515625 -9.941406 12.890625 -10.609375 C 12.273438 -11.285156 11.484375 -11.625 10.515625 -11.625 C 9.546875 -11.625 8.75 -11.285156 8.125 -10.609375 C 7.507812 -9.941406 7.203125 -9.03125 7.203125 -7.875 C 7.203125 -6.707031 7.507812 -5.789062 8.125 -5.125 C 8.75 -4.457031 9.546875 -4.125 10.515625 -4.125 Z M 10.515625 -4.125 "/></g></g></g><g fill="#000000" fill-opacity="1"><g transform="translate(201.065113, 186.317287)"><g><path d="M 17.859375 -7.84375 C 17.859375 -7.800781 17.832031 -7.347656 17.78125 -6.484375 L 6.328125 -6.484375 C 6.566406 -5.660156 7.019531 -5.03125 7.6875 -4.59375 C 8.351562 -4.164062 9.191406 -3.953125 10.203125 -3.953125 C 10.953125 -3.953125 11.601562 -4.054688 12.15625 -4.265625 C 12.707031 -4.484375 13.265625 -4.832031 13.828125 -5.3125 L 16.734375 -2.296875 C 15.203125 -0.585938 12.960938 0.265625 10.015625 0.265625 C 8.179688 0.265625 6.566406 -0.0820312 5.171875 -0.78125 C 3.773438 -1.476562 2.691406 -2.445312 1.921875 -3.6875 C 1.160156 -4.925781 0.78125 -6.332031 0.78125 -7.90625 C 0.78125 -9.445312 1.148438 -10.832031 1.890625 -12.0625 C 2.640625 -13.289062 3.671875 -14.253906 4.984375 -14.953125 C 6.304688 -15.648438 7.789062 -16 9.4375 -16 C 11.007812 -16 12.429688 -15.675781 13.703125 -15.03125 C 14.984375 -14.382812 15.992188 -13.445312 16.734375 -12.21875 C 17.484375 -10.988281 17.859375 -9.53125 17.859375 -7.84375 Z M 9.46875 -12.078125 C 8.613281 -12.078125 7.898438 -11.832031 7.328125 -11.34375 C 6.765625 -10.863281 6.40625 -10.207031 6.25 -9.375 L 12.6875 -9.375 C 12.539062 -10.207031 12.179688 -10.863281 11.609375 -11.34375 C 11.035156 -11.832031 10.320312 -12.078125 9.46875 -12.078125 Z M 9.46875 -12.078125 "/></g></g></g><g fill="#000000" fill-opacity="1"><g transform="translate(216.862233, 186.317287)"><g><path d="M 8.484375 -16 C 11.097656 -16 13.09375 -15.40625 14.46875 -14.21875 C 15.84375 -13.03125 16.53125 -11.207031 16.53125 -8.75 L 16.53125 0 L 11.390625 0 L 11.390625 -2.03125 C 10.597656 -0.5 9.046875 0.265625 6.734375 0.265625 C 5.515625 0.265625 4.457031 0.0507812 3.5625 -0.375 C 2.675781 -0.800781 2.003906 -1.375 1.546875 -2.09375 C 1.097656 -2.820312 0.875 -3.65625 0.875 -4.59375 C 0.875 -6.082031 1.441406 -7.238281 2.578125 -8.0625 C 3.722656 -8.882812 5.488281 -9.296875 7.875 -9.296875 L 11.015625 -9.296875 C 10.910156 -10.960938 9.796875 -11.796875 7.671875 -11.796875 C 6.910156 -11.796875 6.144531 -11.671875 5.375 -11.421875 C 4.601562 -11.179688 3.945312 -10.847656 3.40625 -10.421875 L 1.546875 -14.171875 C 2.410156 -14.753906 3.46875 -15.203125 4.71875 -15.515625 C 5.96875 -15.835938 7.222656 -16 8.484375 -16 Z M 8.28125 -3.21875 C 8.914062 -3.21875 9.472656 -3.375 9.953125 -3.6875 C 10.441406 -4 10.796875 -4.453125 11.015625 -5.046875 L 11.015625 -6.421875 L 8.625 -6.421875 C 7.019531 -6.421875 6.21875 -5.890625 6.21875 -4.828125 C 6.21875 -4.335938 6.398438 -3.945312 6.765625 -3.65625 C 7.128906 -3.363281 7.632812 -3.21875 8.28125 -3.21875 Z M 8.28125 -3.21875 "/></g></g></g><g fill="#000000" fill-opacity="1"><g transform="translate(232.252802, 186.317287)"><g><path d="M 7.03125 -13.859375 C 7.59375 -14.578125 8.320312 -15.113281 9.21875 -15.46875 C 10.125 -15.820312 11.15625 -16 12.3125 -16 L 12.3125 -11.03125 C 11.8125 -11.09375 11.394531 -11.125 11.0625 -11.125 C 9.882812 -11.125 8.960938 -10.800781 8.296875 -10.15625 C 7.628906 -9.519531 7.296875 -8.546875 7.296875 -7.234375 L 7.296875 0 L 1.765625 0 L 1.765625 -15.75 L 7.03125 -15.75 Z M 7.03125 -13.859375 "/></g></g></g><g fill="#000000" fill-opacity="1"><g transform="translate(242.271154, 186.317287)"><g><path d="M 8.484375 -16 C 11.097656 -16 13.09375 -15.40625 14.46875 -14.21875 C 15.84375 -13.03125 16.53125 -11.207031 16.53125 -8.75 L 16.53125 0 L 11.390625 0 L 11.390625 -2.03125 C 10.597656 -0.5 9.046875 0.265625 6.734375 0.265625 C 5.515625 0.265625 4.457031 0.0507812 3.5625 -0.375 C 2.675781 -0.800781 2.003906 -1.375 1.546875 -2.09375 C 1.097656 -2.820312 0.875 -3.65625 0.875 -4.59375 C 0.875 -6.082031 1.441406 -7.238281 2.578125 -8.0625 C 3.722656 -8.882812 5.488281 -9.296875 7.875 -9.296875 L 11.015625 -9.296875 C 10.910156 -10.960938 9.796875 -11.796875 7.671875 -11.796875 C 6.910156 -11.796875 6.144531 -11.671875 5.375 -11.421875 C 4.601562 -11.179688 3.945312 -10.847656 3.40625 -10.421875 L 1.546875 -14.171875 C 2.410156 -14.753906 3.46875 -15.203125 4.71875 -15.515625 C 5.96875 -15.835938 7.222656 -16 8.484375 -16 Z M 8.28125 -3.21875 C 8.914062 -3.21875 9.472656 -3.375 9.953125 -3.6875 C 10.441406 -4 10.796875 -4.453125 11.015625 -5.046875 L 11.015625 -6.421875 L 8.625 -6.421875 C 7.019531 -6.421875 6.21875 -5.890625 6.21875 -4.828125 C 6.21875 -4.335938 6.398438 -3.945312 6.765625 -3.65625 C 7.128906 -3.363281 7.632812 -3.21875 8.28125 -3.21875 Z M 8.28125 -3.21875 "/></g></g></g><g fill="#000000" fill-opacity="1"><g transform="translate(257.661717, 186.317287)"><g><path d="M 9.8125 0.265625 C 8.070312 0.265625 6.515625 -0.0820312 5.140625 -0.78125 C 3.765625 -1.476562 2.691406 -2.445312 1.921875 -3.6875 C 1.160156 -4.925781 0.78125 -6.332031 0.78125 -7.90625 C 0.78125 -9.46875 1.160156 -10.863281 1.921875 -12.09375 C 2.691406 -13.320312 3.765625 -14.28125 5.140625 -14.96875 C 6.515625 -15.65625 8.070312 -16 9.8125 -16 C 11.59375 -16 13.128906 -15.613281 14.421875 -14.84375 C 15.722656 -14.082031 16.648438 -13.023438 17.203125 -11.671875 L 12.921875 -9.5 C 12.203125 -10.914062 11.15625 -11.625 9.78125 -11.625 C 8.800781 -11.625 7.984375 -11.289062 7.328125 -10.625 C 6.679688 -9.96875 6.359375 -9.0625 6.359375 -7.90625 C 6.359375 -6.71875 6.679688 -5.789062 7.328125 -5.125 C 7.984375 -4.457031 8.800781 -4.125 9.78125 -4.125 C 11.15625 -4.125 12.203125 -4.832031 12.921875 -6.25 L 17.203125 -4.0625 C 16.648438 -2.707031 15.722656 -1.644531 14.421875 -0.875 C 13.128906 -0.113281 11.59375 0.265625 9.8125 0.265625 Z M 9.8125 0.265625 "/></g></g></g><g fill="#000000" fill-opacity="1"><g transform="translate(272.326312, 186.317287)"><g><path d="M 12.03125 -16 C 13.976562 -16 15.546875 -15.414062 16.734375 -14.25 C 17.929688 -13.09375 18.53125 -11.34375 18.53125 -9 L 18.53125 0 L 13.015625 0 L 13.015625 -8.109375 C 13.015625 -10.253906 12.148438 -11.328125 10.421875 -11.328125 C 9.472656 -11.328125 8.710938 -11.015625 8.140625 -10.390625 C 7.578125 -9.773438 7.296875 -8.847656 7.296875 -7.609375 L 7.296875 0 L 1.765625 0 L 1.765625 -21.546875 L 7.296875 -21.546875 L 7.296875 -14.296875 C 7.890625 -14.859375 8.59375 -15.28125 9.40625 -15.5625 C 10.21875 -15.851562 11.09375 -16 12.03125 -16 Z M 12.03125 -16 "/></g></g></g><g fill="#000000" fill-opacity="1"><g transform="translate(289.69153, 186.317287)"><g><path d="M 9.8125 0.265625 C 8.070312 0.265625 6.515625 -0.0820312 5.140625 -0.78125 C 3.765625 -1.476562 2.691406 -2.445312 1.921875 -3.6875 C 1.160156 -4.925781 0.78125 -6.332031 0.78125 -7.90625 C 0.78125 -9.46875 1.160156 -10.863281 1.921875 -12.09375 C 2.691406 -13.320312 3.765625 -14.28125 5.140625 -14.96875 C 6.515625 -15.65625 8.070312 -16 9.8125 -16 C 11.59375 -16 13.128906 -15.613281 14.421875 -14.84375 C 15.722656 -14.082031 16.648438 -13.023438 17.203125 -11.671875 L 12.921875 -9.5 C 12.203125 -10.914062 11.15625 -11.625 9.78125 -11.625 C 8.800781 -11.625 7.984375 -11.289062 7.328125 -10.625 C 6.679688 -9.96875 6.359375 -9.0625 6.359375 -7.90625 C 6.359375 -6.71875 6.679688 -5.789062 7.328125 -5.125 C 7.984375 -4.457031 8.800781 -4.125 9.78125 -4.125 C 11.15625 -4.125 12.203125 -4.832031 12.921875 -6.25 L 17.203125 -4.0625 C 16.648438 -2.707031 15.722656 -1.644531 14.421875 -0.875 C 13.128906 -0.113281 11.59375 0.265625 9.8125 0.265625 Z M 9.8125 0.265625 "/></g></g></g><g fill="#000000" fill-opacity="1"><g transform="translate(304.356125, 186.317287)"><g><path d="M 12.03125 -16 C 13.976562 -16 15.546875 -15.414062 16.734375 -14.25 C 17.929688 -13.09375 18.53125 -11.34375 18.53125 -9 L 18.53125 0 L 13.015625 0 L 13.015625 -8.109375 C 13.015625 -10.253906 12.148438 -11.328125 10.421875 -11.328125 C 9.472656 -11.328125 8.710938 -11.015625 8.140625 -10.390625 C 7.578125 -9.773438 7.296875 -8.847656 7.296875 -7.609375 L 7.296875 0 L 1.765625 0 L 1.765625 -21.546875 L 7.296875 -21.546875 L 7.296875 -14.296875 C 7.890625 -14.859375 8.59375 -15.28125 9.40625 -15.5625 C 10.21875 -15.851562 11.09375 -16 12.03125 -16 Z M 12.03125 -16 "/></g></g></g><g fill="#000000" fill-opacity="1"><g transform="translate(321.721343, 186.317287)"><g><path d="M 1.765625 -15.75 L 7.296875 -15.75 L 7.296875 0 L 1.765625 0 Z M 4.53125 -17.484375 C 3.53125 -17.484375 2.71875 -17.765625 2.09375 -18.328125 C 1.476562 -18.890625 1.171875 -19.585938 1.171875 -20.421875 C 1.171875 -21.253906 1.476562 -21.953125 2.09375 -22.515625 C 2.71875 -23.078125 3.53125 -23.359375 4.53125 -23.359375 C 5.539062 -23.359375 6.351562 -23.085938 6.96875 -22.546875 C 7.59375 -22.015625 7.90625 -21.332031 7.90625 -20.5 C 7.90625 -19.632812 7.59375 -18.914062 6.96875 -18.34375 C 6.351562 -17.769531 5.539062 -17.484375 4.53125 -17.484375 Z M 4.53125 -17.484375 "/></g></g></g><g fill="#000000" fill-opacity="1"><g transform="translate(327.966182, 186.317287)"><g/></g></g><g fill="#000000" fill-opacity="1"><g transform="translate(140.548222, 159.157139)"><g><path d="M 11.71875 0.171875 C 9.769531 0.171875 8.015625 -0.253906 6.453125 -1.109375 C 4.898438 -1.972656 3.675781 -3.164062 2.78125 -4.6875 C 1.894531 -6.21875 1.453125 -7.925781 1.453125 -9.8125 C 1.453125 -11.695312 1.894531 -13.398438 2.78125 -14.921875 C 3.675781 -16.453125 4.90625 -17.644531 6.46875 -18.5 C 8.039062 -19.363281 9.800781 -19.796875 11.75 -19.796875 C 13.207031 -19.796875 14.550781 -19.550781 15.78125 -19.0625 C 17.007812 -18.570312 18.054688 -17.863281 18.921875 -16.9375 L 17.609375 -15.609375 C 16.078125 -17.160156 14.140625 -17.9375 11.796875 -17.9375 C 10.242188 -17.9375 8.832031 -17.582031 7.5625 -16.875 C 6.289062 -16.164062 5.296875 -15.191406 4.578125 -13.953125 C 3.859375 -12.722656 3.5 -11.34375 3.5 -9.8125 C 3.5 -8.28125 3.859375 -6.894531 4.578125 -5.65625 C 5.296875 -4.425781 6.289062 -3.457031 7.5625 -2.75 C 8.832031 -2.039062 10.242188 -1.6875 11.796875 -1.6875 C 14.148438 -1.6875 16.085938 -2.46875 17.609375 -4.03125 L 18.921875 -2.71875 C 18.054688 -1.78125 17.003906 -1.0625 15.765625 -0.5625 C 14.523438 -0.0703125 13.175781 0.171875 11.71875 0.171875 Z M 11.71875 0.171875 "/></g></g></g><g fill="#000000" fill-opacity="1"><g transform="translate(157.954737, 159.157139)"><g><path d="M 10.28125 -14.859375 C 12.132812 -14.859375 13.609375 -14.320312 14.703125 -13.25 C 15.796875 -12.175781 16.34375 -10.609375 16.34375 -8.546875 L 16.34375 0 L 14.359375 0 L 14.359375 -8.359375 C 14.359375 -9.890625 13.972656 -11.054688 13.203125 -11.859375 C 12.429688 -12.660156 11.335938 -13.0625 9.921875 -13.0625 C 8.335938 -13.0625 7.082031 -12.585938 6.15625 -11.640625 C 5.226562 -10.703125 4.765625 -9.398438 4.765625 -7.734375 L 4.765625 0 L 2.78125 0 L 2.78125 -20.796875 L 4.765625 -20.796875 L 4.765625 -12.171875 C 5.304688 -13.023438 6.050781 -13.6875 7 -14.15625 C 7.957031 -14.625 9.050781 -14.859375 10.28125 -14.859375 Z M 10.28125 -14.859375 "/></g></g></g><g fill="#000000" fill-opacity="1"><g transform="translate(174.183942, 159.157139)"><g><path d="M 7.9375 -14.859375 C 9.851562 -14.859375 11.328125 -14.375 12.359375 -13.40625 C 13.390625 -12.445312 13.90625 -11.023438 13.90625 -9.140625 L 13.90625 0 L 12 0 L 12 -2.296875 C 11.550781 -1.535156 10.890625 -0.9375 10.015625 -0.5 C 9.148438 -0.0703125 8.117188 0.140625 6.921875 0.140625 C 5.273438 0.140625 3.96875 -0.25 3 -1.03125 C 2.03125 -1.820312 1.546875 -2.863281 1.546875 -4.15625 C 1.546875 -5.40625 2 -6.410156 2.90625 -7.171875 C 3.8125 -7.941406 5.253906 -8.328125 7.234375 -8.328125 L 11.90625 -8.328125 L 11.90625 -9.21875 C 11.90625 -10.488281 11.550781 -11.457031 10.84375 -12.125 C 10.132812 -12.789062 9.097656 -13.125 7.734375 -13.125 C 6.796875 -13.125 5.894531 -12.96875 5.03125 -12.65625 C 4.175781 -12.34375 3.441406 -11.914062 2.828125 -11.375 L 1.9375 -12.859375 C 2.6875 -13.492188 3.582031 -13.984375 4.625 -14.328125 C 5.664062 -14.679688 6.769531 -14.859375 7.9375 -14.859375 Z M 7.234375 -1.421875 C 8.347656 -1.421875 9.304688 -1.675781 10.109375 -2.1875 C 10.921875 -2.707031 11.519531 -3.453125 11.90625 -4.421875 L 11.90625 -6.84375 L 7.28125 -6.84375 C 4.757812 -6.84375 3.5 -5.960938 3.5 -4.203125 C 3.5 -3.347656 3.828125 -2.671875 4.484375 -2.171875 C 5.140625 -1.671875 6.054688 -1.421875 7.234375 -1.421875 Z M 7.234375 -1.421875 "/></g></g></g><g fill="#000000" fill-opacity="1"><g transform="translate(187.974435, 159.157139)"><g><path d="M 21.15625 -14.859375 C 23.007812 -14.859375 24.460938 -14.320312 25.515625 -13.25 C 26.578125 -12.1875 27.109375 -10.617188 27.109375 -8.546875 L 27.109375 0 L 25.109375 0 L 25.109375 -8.359375 C 25.109375 -9.890625 24.738281 -11.054688 24 -11.859375 C 23.269531 -12.660156 22.234375 -13.0625 20.890625 -13.0625 C 19.347656 -13.0625 18.140625 -12.585938 17.265625 -11.640625 C 16.390625 -10.703125 15.953125 -9.398438 15.953125 -7.734375 L 15.953125 0 L 13.953125 0 L 13.953125 -8.359375 C 13.953125 -9.890625 13.582031 -11.054688 12.84375 -11.859375 C 12.113281 -12.660156 11.066406 -13.0625 9.703125 -13.0625 C 8.179688 -13.0625 6.976562 -12.585938 6.09375 -11.640625 C 5.207031 -10.703125 4.765625 -9.398438 4.765625 -7.734375 L 4.765625 0 L 2.78125 0 L 2.78125 -14.75 L 4.6875 -14.75 L 4.6875 -12.046875 C 5.207031 -12.953125 5.929688 -13.644531 6.859375 -14.125 C 7.796875 -14.613281 8.875 -14.859375 10.09375 -14.859375 C 11.320312 -14.859375 12.390625 -14.59375 13.296875 -14.0625 C 14.203125 -13.539062 14.878906 -12.769531 15.328125 -11.75 C 15.867188 -12.71875 16.648438 -13.476562 17.671875 -14.03125 C 18.691406 -14.582031 19.851562 -14.859375 21.15625 -14.859375 Z M 21.15625 -14.859375 "/></g></g></g><g fill="#000000" fill-opacity="1"><g transform="translate(214.96763, 159.157139)"><g><path d="M 8.796875 0.140625 C 7.378906 0.140625 6.097656 -0.179688 4.953125 -0.828125 C 3.816406 -1.472656 2.921875 -2.363281 2.265625 -3.5 C 1.617188 -4.644531 1.296875 -5.9375 1.296875 -7.375 C 1.296875 -8.8125 1.617188 -10.097656 2.265625 -11.234375 C 2.921875 -12.378906 3.816406 -13.269531 4.953125 -13.90625 C 6.097656 -14.539062 7.378906 -14.859375 8.796875 -14.859375 C 10.222656 -14.859375 11.503906 -14.539062 12.640625 -13.90625 C 13.785156 -13.269531 14.675781 -12.378906 15.3125 -11.234375 C 15.957031 -10.097656 16.28125 -8.8125 16.28125 -7.375 C 16.28125 -5.9375 15.957031 -4.644531 15.3125 -3.5 C 14.675781 -2.363281 13.785156 -1.472656 12.640625 -0.828125 C 11.503906 -0.179688 10.222656 0.140625 8.796875 0.140625 Z M 8.796875 -1.625 C 9.847656 -1.625 10.785156 -1.863281 11.609375 -2.34375 C 12.441406 -2.820312 13.09375 -3.5 13.5625 -4.375 C 14.03125 -5.25 14.265625 -6.25 14.265625 -7.375 C 14.265625 -8.488281 14.03125 -9.484375 13.5625 -10.359375 C 13.09375 -11.242188 12.441406 -11.925781 11.609375 -12.40625 C 10.785156 -12.882812 9.847656 -13.125 8.796875 -13.125 C 7.753906 -13.125 6.816406 -12.882812 5.984375 -12.40625 C 5.148438 -11.925781 4.492188 -11.242188 4.015625 -10.359375 C 3.546875 -9.484375 3.3125 -8.488281 3.3125 -7.375 C 3.3125 -6.25 3.546875 -5.25 4.015625 -4.375 C 4.492188 -3.5 5.148438 -2.820312 5.984375 -2.34375 C 6.816406 -1.863281 7.753906 -1.625 8.796875 -1.625 Z M 8.796875 -1.625 "/></g></g></g><g fill="#000000" fill-opacity="1"><g transform="translate(229.795275, 159.157139)"><g><path d="M 16.234375 -20.796875 L 16.234375 0 L 14.328125 0 L 14.328125 -2.921875 C 13.722656 -1.921875 12.929688 -1.160156 11.953125 -0.640625 C 10.972656 -0.117188 9.867188 0.140625 8.640625 0.140625 C 7.253906 0.140625 6 -0.175781 4.875 -0.8125 C 3.757812 -1.445312 2.882812 -2.332031 2.25 -3.46875 C 1.613281 -4.613281 1.296875 -5.914062 1.296875 -7.375 C 1.296875 -8.832031 1.613281 -10.128906 2.25 -11.265625 C 2.882812 -12.410156 3.757812 -13.296875 4.875 -13.921875 C 6 -14.546875 7.253906 -14.859375 8.640625 -14.859375 C 9.828125 -14.859375 10.898438 -14.609375 11.859375 -14.109375 C 12.828125 -13.617188 13.617188 -12.894531 14.234375 -11.9375 L 14.234375 -20.796875 Z M 8.796875 -1.625 C 9.828125 -1.625 10.757812 -1.863281 11.59375 -2.34375 C 12.425781 -2.820312 13.078125 -3.5 13.546875 -4.375 C 14.023438 -5.25 14.265625 -6.25 14.265625 -7.375 C 14.265625 -8.488281 14.023438 -9.484375 13.546875 -10.359375 C 13.078125 -11.242188 12.425781 -11.925781 11.59375 -12.40625 C 10.757812 -12.882812 9.828125 -13.125 8.796875 -13.125 C 7.753906 -13.125 6.816406 -12.882812 5.984375 -12.40625 C 5.148438 -11.925781 4.492188 -11.242188 4.015625 -10.359375 C 3.546875 -9.484375 3.3125 -8.488281 3.3125 -7.375 C 3.3125 -6.25 3.546875 -5.25 4.015625 -4.375 C 4.492188 -3.5 5.148438 -2.820312 5.984375 -2.34375 C 6.816406 -1.863281 7.753906 -1.625 8.796875 -1.625 Z M 8.796875 -1.625 "/></g></g></g><g fill="#000000" fill-opacity="1"><g transform="translate(246.05251, 159.157139)"><g><path d="M 10.28125 -14.859375 C 12.132812 -14.859375 13.609375 -14.320312 14.703125 -13.25 C 15.796875 -12.175781 16.34375 -10.609375 16.34375 -8.546875 L 16.34375 0 L 14.359375 0 L 14.359375 -8.359375 C 14.359375 -9.890625 13.972656 -11.054688 13.203125 -11.859375 C 12.429688 -12.660156 11.335938 -13.0625 9.921875 -13.0625 C 8.335938 -13.0625 7.082031 -12.585938 6.15625 -11.640625 C 5.226562 -10.703125 4.765625 -9.398438 4.765625 -7.734375 L 4.765625 0 L 2.78125 0 L 2.78125 -20.796875 L 4.765625 -20.796875 L 4.765625 -12.171875 C 5.304688 -13.023438 6.050781 -13.6875 7 -14.15625 C 7.957031 -14.625 9.050781 -14.859375 10.28125 -14.859375 Z M 10.28125 -14.859375 "/></g></g></g><g fill="#000000" fill-opacity="1"><g transform="translate(262.282589, 159.157139)"><g/></g></g><g fill="#000000" fill-opacity="1"><g transform="translate(140.548222, 203.845352)"><g><path d="M 3.515625 -6.546875 C 4.347656 -6.546875 5 -6.34375 5.46875 -5.9375 C 5.945312 -5.539062 6.1875 -4.992188 6.1875 -4.296875 C 6.1875 -3.597656 5.945312 -3.050781 5.46875 -2.65625 C 5 -2.257812 4.347656 -2.0625 3.515625 -2.0625 L 1.75 -2.0625 L 1.75 0 L 1.0625 0 L 1.0625 -6.546875 Z M 3.5 -2.671875 C 4.144531 -2.671875 4.640625 -2.8125 4.984375 -3.09375 C 5.328125 -3.375 5.5 -3.773438 5.5 -4.296875 C 5.5 -4.828125 5.328125 -5.234375 4.984375 -5.515625 C 4.640625 -5.796875 4.144531 -5.9375 3.5 -5.9375 L 1.75 -5.9375 L 1.75 -2.671875 Z M 3.5 -2.671875 "/></g></g></g><g fill="#000000" fill-opacity="1"><g transform="translate(152.832989, 203.845352)"><g><path d="M 6.53125 -6.546875 L 6.53125 0 L 5.84375 0 L 5.84375 -3.015625 L 1.75 -3.015625 L 1.75 0 L 1.0625 0 L 1.0625 -6.546875 L 1.75 -6.546875 L 1.75 -3.625 L 5.84375 -3.625 L 5.84375 -6.546875 Z M 6.53125 -6.546875 "/></g></g></g><g fill="#000000" fill-opacity="1"><g transform="translate(166.005038, 203.845352)"><g><path d="M 3.921875 0.0625 C 3.273438 0.0625 2.6875 -0.0820312 2.15625 -0.375 C 1.632812 -0.664062 1.222656 -1.0625 0.921875 -1.5625 C 0.628906 -2.070312 0.484375 -2.640625 0.484375 -3.265625 C 0.484375 -3.898438 0.628906 -4.46875 0.921875 -4.96875 C 1.222656 -5.476562 1.632812 -5.875 2.15625 -6.15625 C 2.6875 -6.445312 3.273438 -6.59375 3.921875 -6.59375 C 4.566406 -6.59375 5.148438 -6.445312 5.671875 -6.15625 C 6.191406 -5.875 6.601562 -5.476562 6.90625 -4.96875 C 7.207031 -4.46875 7.359375 -3.898438 7.359375 -3.265625 C 7.359375 -2.640625 7.207031 -2.070312 6.90625 -1.5625 C 6.601562 -1.050781 6.191406 -0.648438 5.671875 -0.359375 C 5.148438 -0.078125 4.566406 0.0625 3.921875 0.0625 Z M 3.921875 -0.5625 C 4.441406 -0.5625 4.910156 -0.675781 5.328125 -0.90625 C 5.742188 -1.144531 6.066406 -1.46875 6.296875 -1.875 C 6.535156 -2.289062 6.65625 -2.753906 6.65625 -3.265625 C 6.65625 -3.773438 6.535156 -4.238281 6.296875 -4.65625 C 6.066406 -5.070312 5.742188 -5.394531 5.328125 -5.625 C 4.910156 -5.863281 4.441406 -5.984375 3.921875 -5.984375 C 3.410156 -5.984375 2.941406 -5.863281 2.515625 -5.625 C 2.097656 -5.394531 1.769531 -5.070312 1.53125 -4.65625 C 1.289062 -4.238281 1.171875 -3.773438 1.171875 -3.265625 C 1.171875 -2.753906 1.289062 -2.289062 1.53125 -1.875 C 1.769531 -1.46875 2.097656 -1.144531 2.515625 -0.90625 C 2.941406 -0.675781 3.410156 -0.5625 3.921875 -0.5625 Z M 3.921875 -0.5625 "/></g></g></g><g fill="#000000" fill-opacity="1"><g transform="translate(179.419922, 203.845352)"><g><path d="M 2.34375 -5.9375 L 0.03125 -5.9375 L 0.03125 -6.546875 L 5.328125 -6.546875 L 5.328125 -5.9375 L 3.03125 -5.9375 L 3.03125 0 L 2.34375 0 Z M 2.34375 -5.9375 "/></g></g></g><g fill="#000000" fill-opacity="1"><g transform="translate(190.359761, 203.845352)"><g><path d="M 3.921875 0.0625 C 3.273438 0.0625 2.6875 -0.0820312 2.15625 -0.375 C 1.632812 -0.664062 1.222656 -1.0625 0.921875 -1.5625 C 0.628906 -2.070312 0.484375 -2.640625 0.484375 -3.265625 C 0.484375 -3.898438 0.628906 -4.46875 0.921875 -4.96875 C 1.222656 -5.476562 1.632812 -5.875 2.15625 -6.15625 C 2.6875 -6.445312 3.273438 -6.59375 3.921875 -6.59375 C 4.566406 -6.59375 5.148438 -6.445312 5.671875 -6.15625 C 6.191406 -5.875 6.601562 -5.476562 6.90625 -4.96875 C 7.207031 -4.46875 7.359375 -3.898438 7.359375 -3.265625 C 7.359375 -2.640625 7.207031 -2.070312 6.90625 -1.5625 C 6.601562 -1.050781 6.191406 -0.648438 5.671875 -0.359375 C 5.148438 -0.078125 4.566406 0.0625 3.921875 0.0625 Z M 3.921875 -0.5625 C 4.441406 -0.5625 4.910156 -0.675781 5.328125 -0.90625 C 5.742188 -1.144531 6.066406 -1.46875 6.296875 -1.875 C 6.535156 -2.289062 6.65625 -2.753906 6.65625 -3.265625 C 6.65625 -3.773438 6.535156 -4.238281 6.296875 -4.65625 C 6.066406 -5.070312 5.742188 -5.394531 5.328125 -5.625 C 4.910156 -5.863281 4.441406 -5.984375 3.921875 -5.984375 C 3.410156 -5.984375 2.941406 -5.863281 2.515625 -5.625 C 2.097656 -5.394531 1.769531 -5.070312 1.53125 -4.65625 C 1.289062 -4.238281 1.171875 -3.773438 1.171875 -3.265625 C 1.171875 -2.753906 1.289062 -2.289062 1.53125 -1.875 C 1.769531 -1.46875 2.097656 -1.144531 2.515625 -0.90625 C 2.941406 -0.675781 3.410156 -0.5625 3.921875 -0.5625 Z M 3.921875 -0.5625 "/></g></g></g><g fill="#000000" fill-opacity="1"><g transform="translate(203.774643, 203.845352)"><g><path d="M 5.671875 -3.265625 L 6.328125 -3.265625 L 6.328125 -0.78125 C 6.023438 -0.507812 5.664062 -0.300781 5.25 -0.15625 C 4.832031 -0.0078125 4.394531 0.0625 3.9375 0.0625 C 3.28125 0.0625 2.691406 -0.078125 2.171875 -0.359375 C 1.648438 -0.648438 1.238281 -1.050781 0.9375 -1.5625 C 0.632812 -2.070312 0.484375 -2.640625 0.484375 -3.265625 C 0.484375 -3.898438 0.632812 -4.46875 0.9375 -4.96875 C 1.238281 -5.476562 1.648438 -5.875 2.171875 -6.15625 C 2.691406 -6.445312 3.28125 -6.59375 3.9375 -6.59375 C 4.4375 -6.59375 4.894531 -6.515625 5.3125 -6.359375 C 5.726562 -6.203125 6.082031 -5.96875 6.375 -5.65625 L 5.9375 -5.21875 C 5.425781 -5.726562 4.769531 -5.984375 3.96875 -5.984375 C 3.4375 -5.984375 2.957031 -5.863281 2.53125 -5.625 C 2.101562 -5.394531 1.769531 -5.070312 1.53125 -4.65625 C 1.289062 -4.238281 1.171875 -3.773438 1.171875 -3.265625 C 1.171875 -2.753906 1.289062 -2.289062 1.53125 -1.875 C 1.769531 -1.46875 2.101562 -1.144531 2.53125 -0.90625 C 2.957031 -0.675781 3.4375 -0.5625 3.96875 -0.5625 C 4.632812 -0.5625 5.203125 -0.726562 5.671875 -1.0625 Z M 5.671875 -3.265625 "/></g></g></g><g fill="#000000" fill-opacity="1"><g transform="translate(216.573102, 203.845352)"><g><path d="M 5.53125 0 L 4.03125 -2.109375 C 3.863281 -2.085938 3.691406 -2.078125 3.515625 -2.078125 L 1.75 -2.078125 L 1.75 0 L 1.0625 0 L 1.0625 -6.546875 L 3.515625 -6.546875 C 4.347656 -6.546875 5 -6.34375 5.46875 -5.9375 C 5.945312 -5.539062 6.1875 -4.992188 6.1875 -4.296875 C 6.1875 -3.785156 6.054688 -3.351562 5.796875 -3 C 5.535156 -2.644531 5.164062 -2.394531 4.6875 -2.25 L 6.28125 0 Z M 3.5 -2.65625 C 4.144531 -2.65625 4.640625 -2.796875 4.984375 -3.078125 C 5.328125 -3.367188 5.5 -3.773438 5.5 -4.296875 C 5.5 -4.828125 5.328125 -5.234375 4.984375 -5.515625 C 4.640625 -5.796875 4.144531 -5.9375 3.5 -5.9375 L 1.75 -5.9375 L 1.75 -2.65625 Z M 3.5 -2.65625 "/></g></g></g><g fill="#000000" fill-opacity="1"><g transform="translate(228.904567, 203.845352)"><g><path d="M 5.171875 -1.75 L 1.515625 -1.75 L 0.734375 0 L 0.015625 0 L 3.015625 -6.546875 L 3.6875 -6.546875 L 6.6875 0 L 5.953125 0 Z M 4.921875 -2.3125 L 3.34375 -5.828125 L 1.78125 -2.3125 Z M 4.921875 -2.3125 "/></g></g></g><g fill="#000000" fill-opacity="1"><g transform="translate(241.179994, 203.845352)"><g><path d="M 3.515625 -6.546875 C 4.347656 -6.546875 5 -6.34375 5.46875 -5.9375 C 5.945312 -5.539062 6.1875 -4.992188 6.1875 -4.296875 C 6.1875 -3.597656 5.945312 -3.050781 5.46875 -2.65625 C 5 -2.257812 4.347656 -2.0625 3.515625 -2.0625 L 1.75 -2.0625 L 1.75 0 L 1.0625 0 L 1.0625 -6.546875 Z M 3.5 -2.671875 C 4.144531 -2.671875 4.640625 -2.8125 4.984375 -3.09375 C 5.328125 -3.375 5.5 -3.773438 5.5 -4.296875 C 5.5 -4.828125 5.328125 -5.234375 4.984375 -5.515625 C 4.640625 -5.796875 4.144531 -5.9375 3.5 -5.9375 L 1.75 -5.9375 L 1.75 -2.671875 Z M 3.5 -2.671875 "/></g></g></g><g fill="#000000" fill-opacity="1"><g transform="translate(253.46476, 203.845352)"><g><path d="M 6.53125 -6.546875 L 6.53125 0 L 5.84375 0 L 5.84375 -3.015625 L 1.75 -3.015625 L 1.75 0 L 1.0625 0 L 1.0625 -6.546875 L 1.75 -6.546875 L 1.75 -3.625 L 5.84375 -3.625 L 5.84375 -6.546875 Z M 6.53125 -6.546875 "/></g></g></g><g fill="#000000" fill-opacity="1"><g transform="translate(266.636806, 203.845352)"><g><path d="M 3.3125 -2.265625 L 3.3125 0 L 2.625 0 L 2.625 -2.265625 L 0.015625 -6.546875 L 0.75 -6.546875 L 2.984375 -2.875 L 5.234375 -6.546875 L 5.921875 -6.546875 Z M 3.3125 -2.265625 "/></g></g></g></svg>